<?xml version="1.0" encoding="UTF-8"?>
<svg width="25px" height="25px" viewBox="0 0 25 25" version="1.1" xmlns="http://www.w3.org/2000/svg" xmlns:xlink="http://www.w3.org/1999/xlink">
    <!-- Generator: Sketch 48.2 (47327) - http://www.bohemiancoding.com/sketch -->
    <title>ic/Tabbar/driving_schools</title>
    <desc>Created with Sketch.</desc>
    <defs></defs>
    <g id="ic/Tabbar/driving_schools" stroke="none" stroke-width="1" fill="none" fill-rule="evenodd" transform="translate(-12.000000, -4.000000)">
        <g transform="translate(12.000000, 4.000000)" fill="#8E8E93" fill-rule="nonzero" id="Shape">
            <path d="M8.41449176,24.6305632 C8.30583791,24.8462912 8.08804945,24.9708104 7.86195055,24.9708104 C7.76847527,24.9708104 7.67355769,24.9495192 7.58440934,24.9046016 C5.67891484,23.9448489 4.10137363,22.367239 3.14217033,20.4622253 C2.98866758,20.1573489 3.1114011,19.7856456 3.41627747,19.6321429 C3.72135989,19.4785714 4.09292582,19.6013736 4.24635989,19.90625 C5.08715659,21.5760989 6.47012363,22.9591346 8.1404533,23.8004121 C8.44532967,23.9539835 8.56799451,24.3256868 8.41449176,24.6305632 Z M23.9100275,0.132967033 C23.7615385,0.015728022 23.5675137,-0.0269230769 23.3834478,0.017032967 L12.073283,2.71971154 L0.763118132,0.017032967 C0.578983516,-0.0271291209 0.384958791,0.0157967033 0.236538462,0.132967033 C0.0879807692,0.250206044 0.00137362637,0.428983516 0.00137362637,0.618200549 L0.00137362637,14.9353709 C0.00137362637,15.2214286 0.197664835,15.4701236 0.475892857,15.5365385 L2.7103022,16.0703984 C3.04223901,16.1497253 3.37582418,15.9447802 3.4551511,15.6127747 C3.53447802,15.2807692 3.32960165,14.9472527 2.99752747,14.8679258 L1.23763736,14.4474588 L1.23763736,1.40144231 L11.4552198,3.84306319 L11.4552198,7.00487637 C11.4552198,7.34629121 11.7319368,7.62300824 12.0733516,7.62300824 C12.4147665,7.62300824 12.6914835,7.34629121 12.6914835,7.00487637 L12.6914835,3.84306319 L22.9090659,1.40144231 L22.9090659,14.4475275 L20.8932005,14.9292582 C20.5611951,15.0085852 20.3563187,15.3421016 20.4356456,15.6741071 C20.5034341,15.9578297 20.7568681,16.1487637 21.0363324,16.1486951 C21.0838599,16.1486951 21.1322115,16.1431319 21.1805632,16.1315934 L23.6708791,15.5365385 C23.9491071,15.4700549 24.1453297,15.2214286 24.1453297,14.9353709 L24.1453297,0.618200549 C24.145261,0.428983516 24.0585852,0.250206044 23.9100275,0.132967033 Z M19.4098901,15.9734203 C19.4098901,20.0190247 16.1186813,23.3103022 12.073283,23.3103022 C8.02767857,23.3103022 4.73633242,20.0190247 4.73633242,15.9734203 C4.73633242,11.9278846 8.02767857,8.63653846 12.073283,8.63653846 C16.1186813,8.63653846 19.4098901,11.9278846 19.4098901,15.9734203 Z M11.4551511,18.0305632 C10.7669643,17.8234203 10.223283,17.279739 10.0161401,16.5915522 L6.00370879,16.5915522 C6.29395604,19.4630495 8.58365385,21.7527473 11.4551511,22.0429945 L11.4551511,18.0305632 Z M12.073283,16.8849588 C12.5757555,16.8849588 12.9846841,16.4760302 12.9846841,15.973489 C12.9846841,15.4709478 12.5758242,15.0620192 12.073283,15.0620192 C11.5706731,15.0620192 11.1617445,15.4709478 11.1617445,15.973489 C11.1617445,16.4760302 11.5706731,16.8849588 12.073283,16.8849588 Z M18.1425824,16.5915522 L14.1302885,16.5915522 C13.9231456,17.2796703 13.3793956,17.8233516 12.6914148,18.0305632 L12.6914148,22.0429945 C15.5627747,21.7527473 17.8524038,19.4630495 18.1425824,16.5915522 Z M18.1425824,15.3552885 C17.8318681,12.2805632 15.2284341,9.8728022 12.073283,9.8728022 C8.91799451,9.8728022 6.31442308,12.2805632 6.00370879,15.3552885 L10.0161401,15.3552885 C10.2822115,14.4712912 11.1037088,13.8256868 12.073283,13.8256868 C13.0427198,13.8256868 13.864217,14.4712912 14.1302885,15.3552885 L18.1425824,15.3552885 Z M20.7302198,12.3146978 C21.0350962,12.1611951 21.1578984,11.7895604 21.0042582,11.4846154 C20.0447802,9.57925824 18.4671703,8.00157967 16.5620192,7.04223901 C16.2571429,6.8885989 15.8853709,7.01133242 15.7319368,7.31627747 C15.5784341,7.62115385 15.7010989,7.99285714 16.0059753,8.14635989 C17.6759615,8.98729396 19.0589286,10.3703297 19.9000687,12.0405907 C20.0087225,12.2563187 20.226511,12.3808379 20.4526099,12.3808379 C20.5461538,12.3809066 20.6410714,12.3596154 20.7302198,12.3146978 Z"></path>
        </g>
    </g>
</svg>