<?xml version="1.0" encoding="UTF-8"?>
<svg width="23px" height="24px" viewBox="0 0 23 24" version="1.1" xmlns="http://www.w3.org/2000/svg" xmlns:xlink="http://www.w3.org/1999/xlink">
    <!-- Generator: Sketch 48.2 (47327) - http://www.bohemiancoding.com/sketch -->
    <title>ic/Tabbar/ads</title>
    <desc>Created with Sketch.</desc>
    <defs></defs>
    <g id="Icons/Tabbar/ads" stroke="none" stroke-width="1" fill="none" fill-rule="evenodd" transform="translate(-13.000000, -4.000000)">
        <g id="ic/Tabbar/ads" transform="translate(13.000000, 4.000000)" fill="#8E8E93">
            <path d="M17.569013,21.0277093 C17.569013,21.3986405 17.5473692,21.7619927 17.5749887,22.1216283 C17.6039198,22.4984623 17.9636283,22.7967377 18.3631263,22.8245757 C18.7320899,22.8503733 19.1191992,22.6114907 19.1710858,22.2366972 C19.225596,21.843102 19.1833287,21.4361709 19.1833287,21.0277093 L17.569013,21.0277093 Z M2.99411417,21.0286567 C2.99411417,21.3952883 2.97531255,21.7467619 2.99899676,22.0953935 C3.02639757,22.4986081 3.40294008,22.8169239 3.81876194,22.8267619 C4.21294008,22.8361628 4.58365263,22.555596 4.62271336,22.1579927 C4.65907773,21.7883004 4.63051093,21.4121223 4.63051093,21.0286567 L2.99411417,21.0286567 Z M11.113353,12.6789887 C8.30775789,12.6789887 5.50216275,12.6788429 2.69656761,12.6795717 C2.5937417,12.6796445 2.48880243,12.678187 2.38838138,12.6966972 C1.62939352,12.8366162 1.13821943,13.4378308 1.13647045,14.2346405 C1.13348259,15.5949158 1.1354502,16.9551911 1.1357417,18.3155393 C1.13596032,19.2960656 1.7728834,19.9311668 2.7557417,19.9311668 L19.4617093,19.9311668 C19.5041951,19.9311668 19.5467538,19.9320413 19.5892397,19.9309482 C20.4337093,19.9086486 21.0606486,19.2650939 21.0606486,18.4203328 C21.0607943,16.9932316 21.061013,15.5662032 21.0599198,14.139102 C21.059847,14.0606891 21.0548915,13.9814016 21.0419927,13.9042275 C20.9173045,13.1602518 20.2354178,12.6674016 19.5300656,12.6717741 C16.7245433,12.689264 13.9189482,12.6789887 11.113353,12.6789887 Z M16.5015474,21.0137174 L5.72064049,21.0137174 C5.72064049,21.2433449 5.7263247,21.4664866 5.71903725,21.6891911 C5.7117498,21.9132073 5.71014656,22.1399927 5.67356356,22.3601466 C5.53277004,23.2073854 4.77997652,23.8558955 3.90730445,23.8967781 C3.03944211,23.9374421 2.18557166,23.3457741 1.99551498,22.5158065 C1.91156356,22.1491749 1.90325587,21.7555798 1.92271336,21.3775069 C1.94020324,21.038349 1.8451749,20.8782437 1.51979028,20.725353 C0.581604049,20.2844623 0.090502834,19.4980008 0.0735959514,18.4645676 C0.0498388664,17.0077336 0.0451748988,15.549515 0.0800089069,14.0930453 C0.106462348,12.9906729 0.701045344,12.2340899 1.69505344,11.7886081 C1.81719109,11.7338794 1.85246235,11.6752883 1.85115061,11.5501628 C1.8414583,10.6135798 1.88306964,9.68107773 2.10876194,8.76591984 C2.56706964,6.90798462 3.52456761,5.34854332 4.93709393,4.06697247 C6.20372551,2.9177417 7.68941781,2.20291579 9.36531255,1.8777498 C10.467685,1.66386316 11.5734826,1.66743401 12.680519,1.83599271 C13.0146486,1.88685911 13.2002599,2.14177409 13.1536202,2.47080243 C13.1139036,2.75115061 12.8539603,2.93749069 12.5306162,2.88895628 C11.8555798,2.78751498 11.1792316,2.75304534 10.4980008,2.79983077 C8.97565263,2.90433279 7.59409798,3.41292389 6.36157166,4.29856761 C4.46785506,5.65928016 3.35411417,7.51466478 3.00358785,9.81523968 C2.91635709,10.3879603 2.92626802,10.9754745 2.89048664,11.5731911 L19.2567862,11.5731911 C19.2567862,11.1494259 19.2689563,10.7210696 19.2525595,10.2938065 C19.2415555,10.0098874 19.1842032,9.72800891 19.1577498,9.44423563 C19.1360332,9.21132874 19.2300413,9.02389555 19.4370049,8.91334494 C19.646519,8.80133684 19.8658713,8.8328915 20.0272154,8.99241377 C20.1255231,9.08955547 20.2028429,9.24805749 20.2148672,9.38557166 C20.277102,10.0980656 20.3199522,10.8123814 20.3577741,11.5266972 C20.3649158,11.6626081 20.3875069,11.7326405 20.5300494,11.7887538 C21.5407457,12.18643 22.1408672,13.1130291 22.1463328,14.2814988 C22.1525271,15.6173611 22.1534745,16.9532964 22.1460413,18.2890858 C22.1389725,19.5548429 21.559766,20.4020818 20.4018632,20.8565271 C20.3055231,20.894349 20.2954664,20.9463814 20.293936,21.0320089 C20.2867215,21.4322356 20.2964866,21.8345028 20.2585919,22.2321061 C20.167353,23.1885838 19.3459117,23.9022437 18.3705595,23.8977984 C17.4185271,23.8934259 16.5816364,23.1420899 16.5065757,22.1963247 C16.4760413,21.8115474 16.5015474,21.4223976 16.5015474,21.0137174 Z" id="Fill-4"></path>
            <path d="M15.9558121,1.88434494 C15.4738931,2.0667498 15.1459579,2.62052308 15.1770024,3.17699271 C15.2061522,3.69782672 15.5570429,4.21232065 15.9558121,4.31565668 L15.9558121,1.88434494 Z M17.1327352,8.16736518 C17.632217,7.94859595 17.9524275,7.41566478 17.9234964,6.88098462 C17.8945652,6.34776194 17.559634,5.85097652 17.1327352,5.71572146 L17.1327352,8.16736518 Z M17.1559822,9.30479028 C17.121804,9.51328421 17.1027109,9.69802105 17.0594964,9.87700081 C17.0001036,10.1222235 16.7843223,10.2787579 16.5383709,10.276936 C16.2931482,10.2750413 16.0857474,10.1147174 16.0237312,9.86781862 C15.9934883,9.74735709 15.9609134,9.62208583 15.96463,9.50002105 C15.9688567,9.36243401 15.92863,9.30355142 15.7935935,9.2596081 C14.8170024,8.94129231 14.1434964,8.06060405 14.1025409,7.06550283 C14.0867271,6.67955951 14.2753263,6.42624777 14.5940065,6.40577004 C14.9328729,6.38398057 15.1487271,6.60340567 15.1756178,7.0021749 C15.2091401,7.50012632 15.4423385,7.87411822 15.8684356,8.13012632 C15.887966,8.14185911 15.9101198,8.14929231 15.9469215,8.16583482 L15.9469215,5.53849069 C15.6083466,5.34253117 15.2599336,5.19758381 14.9797312,4.96897652 C13.7962494,4.00338947 13.7969053,2.22721943 14.974047,1.2521587 C15.1941279,1.0698996 15.4566947,0.92225587 15.7229781,0.818263968 C15.9072777,0.746263968 15.9846704,0.649268016 16.015132,0.47451498 C16.045302,0.302093927 16.1449943,0.175292308 16.2991239,0.0948388664 C16.6054154,-0.0649748988 16.9788243,0.0972437247 17.0594235,0.441065587 C17.1070834,0.644531174 17.200217,0.746846964 17.4081279,0.819648583 C18.3513425,1.14991579 18.9983223,2.09254737 18.9974478,3.08786721 C18.9971563,3.38752713 18.7722656,3.62881457 18.4814964,3.64156761 C18.1858445,3.6544664 17.9433911,3.42709798 17.9281603,3.10936518 C17.9030915,2.58539757 17.6808243,2.18036113 17.2268162,1.90890364 C17.2024032,1.89432874 17.1757312,1.88361619 17.1254478,1.85898462 L17.1254478,2.05625587 C17.1254478,2.81517085 17.1302575,3.5741587 17.1215126,4.33300081 C17.1196907,4.49492794 17.1581684,4.56896842 17.3226462,4.62653927 C19.1481522,5.26579433 19.3342008,7.23296842 18.5851968,8.29285506 C18.2261441,8.80093603 17.7457555,9.14300891 17.1559822,9.30479028 Z" id="Fill-6"></path>
            <path d="M17.6868656,17.1262858 C18.094817,17.126213 18.4142988,16.8110308 18.4183069,16.4046826 C18.4224607,15.9913385 18.0975134,15.6618 17.6862826,15.6622372 C17.2866389,15.6626745 16.9522907,15.9912656 16.9495215,16.386464 C16.9466065,16.7941239 17.2777482,17.1263587 17.6868656,17.1262858 M19.4939344,16.3869012 C19.4948089,17.3908931 18.692898,18.1972494 17.680234,18.2107312 C16.6921287,18.2238486 15.8878858,17.4016785 15.886647,16.377136 C15.8854081,15.388885 16.7010923,14.5815085 17.701149,14.5809984 C18.6671004,14.5804883 19.492987,15.4124235 19.4939344,16.3869012" id="Fill-18"></path>
            <path d="M4.55177004,17.1265045 C4.96096032,17.1252656 5.28947854,16.7909903 5.28328421,16.3820915 C5.2773085,15.9835409 4.94755142,15.6627474 4.54346235,15.6622372 C4.1398834,15.6617271 3.82062024,15.9831036 3.81996437,16.3902534 C3.8193085,16.811468 4.13376194,17.1278162 4.55177004,17.1265045 M6.35752713,16.3865368 C6.36423158,17.37763 5.5473085,18.1973223 4.54040162,18.2098567 C3.5610413,18.2219538 2.75876599,17.4132656 2.74120324,16.3961563 C2.72444211,15.4223344 3.55426397,14.586464 4.54309798,14.5809984 C5.52209393,14.5756057 6.35082267,15.4003263 6.35752713,16.3865368" id="Fill-20"></path>
            <path d="M11.1026113,16.7611336 C10.3315263,16.7611336 9.5604413,16.7653603 8.78942915,16.7579271 C8.61263563,16.756251 8.43387449,16.7257166 8.26028745,16.6884049 C8.04661943,16.6425668 7.88964777,16.4493765 7.8681498,16.2374575 C7.84410121,16.0003968 7.95902429,15.7747045 8.17393117,15.6884939 C8.2995668,15.6382105 8.43999595,15.5995142 8.57393927,15.599004 C10.267834,15.5931741 11.9618016,15.5922996 13.6556964,15.6003158 C13.7992591,15.6009717 13.9563036,15.6495061 14.0829595,15.7193927 C14.4272915,15.9092308 14.4412105,16.4045587 14.104749,16.6097733 C13.9680364,16.6931417 13.7930648,16.7519514 13.6343441,16.7545749 C12.7906032,16.7685668 11.9465709,16.7611336 11.1026113,16.7611336" id="Fill-22"></path>
        </g>
    </g>
</svg>