<?xml version="1.0" encoding="UTF-8"?>
<svg width="24px" height="24px" viewBox="0 0 24 24" version="1.1" xmlns="http://www.w3.org/2000/svg" xmlns:xlink="http://www.w3.org/1999/xlink">
    <!-- Generator: Sketch 48.2 (47327) - http://www.bohemiancoding.com/sketch -->
    <title>Shape</title>
    <desc>Created with Sketch.</desc>
    <defs></defs>
    <g id="1.2.0---0-Driving-Schools---Details" stroke="none" stroke-width="1" fill="none" fill-rule="evenodd" transform="translate(-176.000000, -201.000000)">
        <g id="Group-4" transform="translate(16.000000, 185.000000)" fill="#7E57C2" fill-rule="nonzero">
            <g id="Group-3" transform="translate(156.000000, 16.000000)">
                <path d="M27.9885604,18.9283081 C28.0394162,19.3179255 27.9206836,19.6566872 27.6328607,19.9445931 L24.2537131,23.298209 C24.1012703,23.4675898 23.9022894,23.6116881 23.6566872,23.7301301 C23.411085,23.8487382 23.1697588,23.9249596 22.9327086,23.9587943 C22.9157706,23.9587943 22.8648318,23.9631533 22.7800998,23.9716224 C22.695534,23.9800499 22.5854364,23.9843674 22.4499318,23.9843674 C22.1280251,23.9843674 21.6071376,23.9293187 20.887269,23.8191796 C20.1674005,23.7090406 19.2866617,23.4379897 18.2450526,23.0061516 C17.2031944,22.5742305 16.0218046,21.9262658 14.7006756,21.0625066 C13.3795466,20.1987889 11.9736442,19.01304 10.4830929,17.5055091 C9.29742706,16.3367813 8.31501823,15.2188678 7.5358664,14.1518101 C6.75671457,13.0846693 6.13000549,12.098026 5.65573916,11.1918385 C5.18143131,10.2856511 4.82573156,9.46415403 4.58859839,8.72734741 C4.35146523,7.99054079 4.19055344,7.35536266 4.10586302,6.82181304 C4.0211726,6.28826342 3.98729644,5.86904586 4.00423452,5.56416036 C4.0211726,5.25927486 4.02964165,5.08989402 4.02964165,5.05601786 C4.06351781,4.81888469 4.13973919,4.57751701 4.25830577,4.3319148 C4.37687235,4.08631259 4.52084606,3.88729011 4.69022689,3.73484736 L8.06937451,0.355699749 C8.30650767,0.118566583 8.57751701,0 8.8824025,0 C9.10259759,0 9.29738555,0.0635178123 9.46676638,0.190553437 C9.63614721,0.317589061 9.78012092,0.474266332 9.8986875,0.660585248 L12.6172499,5.81823161 C12.7696926,6.08924094 12.8120378,6.3856574 12.7442855,6.70748098 C12.6765332,7.02930456 12.5325595,7.30031389 12.3123644,7.52050898 L11.0674152,8.7654581 C11.0335391,8.79933426 11.0038974,8.85438303 10.9784903,8.93060441 C10.9530832,9.00682578 10.9403796,9.0703436 10.9403796,9.12115784 C11.008132,9.47685759 11.1605747,9.88337159 11.3977079,10.3406998 C11.6009649,10.7472138 11.9143194,11.2426528 12.3377715,11.8270166 C12.7612236,12.4113805 13.3625255,13.0846278 14.1416774,13.8468416 C14.9038911,14.6260764 15.5814144,15.2315299 16.1742474,15.663534 C16.7669557,16.0952891 17.2625607,16.4130027 17.6606057,16.6162597 C18.0586506,16.8195167 18.3635361,16.9423178 18.5752207,16.9845385 L18.8927267,17.0480978 C18.9266029,17.0480978 18.9817762,17.0353527 19.0579145,17.0099871 C19.1341359,16.9845385 19.1891847,16.9549383 19.2231023,16.9210206 L20.671267,15.4474074 C20.9763185,15.1764396 21.3318522,15.0409349 21.7384077,15.0409349 C22.0264382,15.0409349 22.2549777,15.0917077 22.4243586,15.1933777 L22.4497242,15.1933777 L27.3532578,18.0897899 C27.7090821,18.3101511 27.9207666,18.5895464 27.9885604,18.9283081 Z" id="Shape"></path>
            </g>
        </g>
    </g>
</svg>