<?xml version="1.0" encoding="UTF-8"?>
<svg width="26px" height="23px" viewBox="0 0 26 23" version="1.1" xmlns="http://www.w3.org/2000/svg" xmlns:xlink="http://www.w3.org/1999/xlink">
    <!-- Generator: Sketch 48.2 (47327) - http://www.bohemiancoding.com/sketch -->
    <title>Shape</title>
    <desc>Created with Sketch.</desc>
    <defs></defs>
    <g id="1.2.0---0-Driving-Schools---Details" stroke="none" stroke-width="1" fill="none" fill-rule="evenodd" transform="translate(-60.000000, -202.000000)">
        <g id="Group-4" transform="translate(16.000000, 185.000000)" fill="#7E57C2" fill-rule="nonzero" stroke="#9170CD">
            <g id="Group-3" transform="translate(26.000000, 18.000000)">
                <path d="M41.3928385,4.26556169 C40.3214757,2.94872221 38.8661129,1.9084603 37.0268908,1.14505742 C35.1876687,0.381654532 33.1786347,0 31.0000235,0 C28.8214591,0 26.812472,0.381654532 24.973203,1.14505742 C23.133934,1.9084603 21.6786181,2.94853457 20.6071615,4.26556169 C19.535658,5.58249499 19,7.01768678 19,8.57127779 C19,9.91049304 19.4038896,11.1653183 20.2119971,12.3349094 C21.0201046,13.5045473 22.1248668,14.4868292 23.5267999,15.2814268 C23.4284779,15.6384539 23.3124241,15.9776555 23.178451,16.2993599 C23.0445248,16.6207359 22.9240147,16.8841788 22.8168737,17.0896418 C22.7096389,17.2948234 22.564689,17.5226152 22.3815079,17.7724075 C22.1986084,18.0225282 22.0602258,18.1989543 21.9664539,18.3016858 C21.872776,18.4044173 21.7187725,18.573807 21.5043499,18.8105585 C21.2902086,19.0470286 21.1517322,19.2013135 21.0892959,19.2727564 C21.0802424,19.2773066 21.0445913,19.3172265 20.982108,19.3935011 C20.9196716,19.4692597 20.8883362,19.5069748 20.8883362,19.5069748 L20.8079805,19.6275319 C20.7632758,19.6941432 20.7431986,19.73669 20.7476081,19.7543279 C20.7521114,19.7723411 20.7431986,19.8169519 20.7208698,19.8882072 C20.698494,19.9597909 20.7007926,20.0134083 20.7275309,20.0490594 L20.7275309,20.0625224 C20.7632758,20.2142272 20.834625,20.3370828 20.9417659,20.4308077 C21.0489069,20.5242512 21.1696516,20.5711136 21.3034371,20.5711136 L21.3704706,20.5711136 C21.9509739,20.4995299 22.4598466,20.4016301 22.8972763,20.2765698 C25.236646,19.6784285 27.2902907,18.5980591 29.0580699,17.0354146 C29.727654,17.1068576 30.3750032,17.1425087 30.9999296,17.1425087 C33.178494,17.1425087 35.1875749,16.7609011 37.026797,15.9972636 C38.8660191,15.2337669 40.3213819,14.1938803 41.3927447,12.8769939 C42.4642951,11.5601544 43,10.1248219 43,8.57123088 C43.0000469,7.01787442 42.464389,5.58249499 41.3928385,4.26556169 Z M39.8861099,11.9865605 C38.9528014,13.039957 37.6938949,13.8771483 36.1091092,14.4975715 C34.5243235,15.1178539 32.8210916,15.4283469 30.9996951,15.4283469 C30.4551244,15.4283469 29.8748087,15.3926958 29.2587481,15.3211121 L28.4953452,15.240991 L27.919439,15.7500513 C26.8213848,16.7144139 25.5935793,17.477676 24.2364447,18.040213 C24.6470892,17.3171522 24.9595993,16.5491991 25.1739751,15.7368698 L25.5355524,14.4509905 L24.3704178,13.7815939 C23.2096926,13.1205004 22.3102526,12.3371141 21.6717225,11.4307784 C21.0332861,10.5247242 20.7142086,9.57138529 20.7142086,8.57146543 C20.7142086,7.34821011 21.1807222,6.20990765 22.1137024,5.15632348 C23.0469641,4.10283313 24.3057298,3.26573565 25.8906093,2.64521867 C27.4754889,2.02465478 29.1784393,1.71411483 30.9999765,1.71411483 C32.8213731,1.71411483 34.5242766,2.02451405 36.1090623,2.64503103 C37.6938011,3.26559492 38.9527075,4.10264549 39.886063,5.15613584 C40.8190902,6.20972001 41.2855568,7.34806939 41.2855568,8.57123088 C41.2855568,9.79439238 40.8190902,10.9329763 39.8861099,11.9865605 Z" id="Shape"></path>
            </g>
        </g>
    </g>
</svg>