<?xml version="1.0" encoding="UTF-8"?>
<svg width="40px" height="40px" viewBox="0 0 40 40" version="1.1" xmlns="http://www.w3.org/2000/svg" xmlns:xlink="http://www.w3.org/1999/xlink">
    <!-- Generator: Sketch 49.2 (51160) - http://www.bohemiancoding.com/sketch -->
    <title>driving schools</title>
    <desc>Created with Sketch.</desc>
    <defs></defs>
    <g id="Page-9" stroke="none" stroke-width="1" fill="none" fill-rule="evenodd">
        <g id="0.0.0---0-Home" transform="translate(-228.000000, -236.000000)" fill="#7E57C2" fill-rule="nonzero">
            <g id="Categories" transform="translate(12.000000, 20.000000)">
                <g id="Group" transform="translate(176.000000, 197.000000)">
                    <g id="ic/Tabbar/driving_schools_active" transform="translate(21.000000, 13.000000)">
                        <path d="M32.9595262,45.195389 C32.7841028,45.5359311 32.4324798,45.7324936 32.0674395,45.7324936 C31.9165222,45.7324936 31.7632762,45.6988839 31.6193448,45.6279783 C28.5428931,44.1129401 25.9959274,41.6225702 24.4472782,38.6153699 C24.1994456,38.1341008 24.3976008,37.5473406 24.8898286,37.3050255 C25.3823891,37.062602 25.9822883,37.2564541 26.2300101,37.7377232 C27.5874899,40.373699 29.8203125,42.5569196 32.5170867,43.8849362 C33.0093145,44.1273597 33.2073589,44.7141199 32.9595262,45.195389 Z M57.9773185,6.52418367 C57.7375806,6.33911352 57.4243246,6.27178571 57.1271472,6.34117347 L38.8667036,10.6075446 L20.6062601,6.34117347 C20.3089718,6.27146046 19.9957157,6.33922194 19.7560887,6.52418367 C19.5162399,6.70925383 19.3764113,6.99146684 19.3764113,7.29015944 L19.3764113,29.8908355 C19.3764113,30.342398 19.6933266,30.7349809 20.1425302,30.8398214 L23.7500202,31.6825574 C24.2859375,31.8077806 24.8245161,31.4842602 24.9525907,30.9601658 C25.0806653,30.4360714 24.7498891,29.9095918 24.21375,29.7843686 L21.372379,29.1206314 L21.372379,8.5265625 L37.8688306,12.3808355 L37.8688306,17.3719834 C37.8688306,17.9109311 38.3155948,18.3477487 38.8668145,18.3477487 C39.4180343,18.3477487 39.8647984,17.9109311 39.8647984,17.3719834 L39.8647984,12.3808355 L56.36125,8.5265625 L56.36125,29.1207398 L53.1066028,29.8811862 C52.5705746,30.0064094 52.2397984,30.532889 52.367873,31.0569834 C52.4773185,31.5048597 52.8864919,31.8062628 53.3376915,31.8061543 C53.4144254,31.8061543 53.4924899,31.7973724 53.5705544,31.7791582 L57.5912097,30.8398214 C58.0404133,30.7348724 58.3572177,30.342398 58.3572177,29.8908355 L58.3572177,7.29015944 C58.3571069,6.99146684 58.2171673,6.70925383 57.9773185,6.52418367 Z M50.7117742,31.5294707 C50.7117742,37.9157462 45.3980645,43.1112628 38.8667036,43.1112628 C32.3350101,43.1112628 27.0210786,37.9157462 27.0210786,31.5294707 C27.0210786,25.1433036 32.3350101,19.9476786 38.8667036,19.9476786 C45.3980645,19.9476786 50.7117742,25.1433036 50.7117742,31.5294707 Z M37.8687198,34.7768176 C36.757631,34.4498278 35.8798488,33.591588 35.5454133,32.505236 L29.0672782,32.505236 C29.5358871,37.0380995 33.2326411,40.652551 37.8687198,41.110727 L37.8687198,34.7768176 Z M38.8667036,32.9683992 C39.6779536,32.9683992 40.3381754,32.3228763 40.3381754,31.5295791 C40.3381754,30.7362819 39.6780645,30.0907589 38.8667036,30.0907589 C38.0552319,30.0907589 37.3950101,30.7362819 37.3950101,31.5295791 C37.3950101,32.3228763 38.0552319,32.9683992 38.8667036,32.9683992 Z M48.6656855,32.505236 L42.1877722,32.505236 C41.8533367,33.5914796 40.9754435,34.4497194 39.8646875,34.7768176 L39.8646875,41.110727 C44.5005444,40.652551 48.1971875,37.0380995 48.6656855,32.505236 Z M48.6656855,30.5537054 C48.1640323,25.7000319 43.960746,21.8992092 38.8667036,21.8992092 C33.7724395,21.8992092 29.5689315,25.7000319 29.0672782,30.5537054 L35.5454133,30.5537054 C35.9749899,29.1582526 37.3013105,28.1391199 38.8667036,28.1391199 C40.431875,28.1391199 41.7581956,29.1582526 42.1877722,30.5537054 L48.6656855,30.5537054 Z M52.8434677,25.7539158 C53.3356956,25.5116008 53.5339617,24.924949 53.2859073,24.4435714 C51.7368145,21.4358291 49.1897379,18.9453508 46.1138407,17.430963 C45.6216129,17.1884311 45.021381,17.3821747 44.7736593,17.8635523 C44.5258266,18.3448214 44.723871,18.9315816 45.2160988,19.1738967 C47.9123185,20.5013712 50.1451411,22.6845918 51.5031754,25.3212181 C51.6785988,25.6617602 52.0302218,25.8583227 52.3952621,25.8583227 C52.5462903,25.8584311 52.6995363,25.8248214 52.8434677,25.7539158 Z" id="Shape"></path>
                    </g>
                </g>
            </g>
        </g>
    </g>
</svg>