<?xml version="1.0" encoding="UTF-8"?>
<svg width="29px" height="26px" viewBox="0 0 29 26" version="1.1" xmlns="http://www.w3.org/2000/svg" xmlns:xlink="http://www.w3.org/1999/xlink">
    <!-- Generator: Sketch 49.2 (51160) - http://www.bohemiancoding.com/sketch -->
    <title>ic/Tabbar/driving_schools</title>
    <desc>Created with Sketch.</desc>
    <defs></defs>
    <g id="Page-9" stroke="none" stroke-width="1" fill="none" fill-rule="evenodd">
        <g id="0.2.0---0-Home" transform="translate(-317.000000, -178.000000)" fill="#7E57C2">
            <g id="Group-11" transform="translate(118.000000, 163.000000)">
                <g id="Group-11-Copy-14">
                    <g id="Icons/Tabbar/Home" transform="translate(185.000000, 10.000000)">
                        <g id="Group" transform="translate(14.090323, 5.726190)">
                            <path d="M27.8815348,9.70111768 L14.5495078,0.180398441 C14.2924212,-0.00316112503 13.943157,-0.00316112503 13.6861803,0.180398441 L0.354043388,9.70111768 C0.0284003773,9.93370148 -0.0423533673,10.379688 0.196110922,10.6973007 C0.434575212,11.0149134 0.891892699,11.0838152 1.21748078,10.8513386 L14.1177891,1.63885581 L27.0180974,10.851285 C27.1481788,10.9442435 27.2993545,10.9889815 27.4492118,10.9889815 C27.6742175,10.9889815 27.8962569,10.8879862 28.0394123,10.6972471 C28.2779316,10.379688 28.2071778,9.93370148 27.8815348,9.70111768 Z" id="Shape" fill-rule="nonzero"></path>
                            <path d="M24.3488465,11.0126631 C23.9453084,11.0126631 23.6180724,11.331776 23.6180724,11.7254164 L23.6180724,23.070587 L17.7719893,23.070587 L17.7719893,16.8776752 C17.7719893,14.9124198 16.1326778,13.3136407 14.117844,13.3136407 C12.1030103,13.3136407 10.4636988,14.912527 10.4636988,16.8776752 L10.4636988,23.0706406 L4.61756076,23.0706406 L4.61756076,11.72547 C4.61756076,11.3318296 4.29032469,11.0127167 3.88678664,11.0127167 C3.48324859,11.0127167 3.15601253,11.3318296 3.15601253,11.72547 L3.15601253,23.7834475 C3.15601253,24.1770879 3.48324859,24.4962008 3.88678664,24.4962008 L11.1944729,24.4962008 C11.5787844,24.4962008 11.893276,24.2066096 11.9223905,23.8389547 C11.9241483,23.8222918 11.925247,23.8040752 11.925247,23.7834475 L11.925247,16.8777288 C11.925247,15.698522 12.9088229,14.7392009 14.117844,14.7392009 C15.3268651,14.7392009 16.310441,15.6985755 16.310441,16.8777288 L16.310441,23.7834475 C16.310441,23.803968 16.3115397,23.8218632 16.3132976,23.8383118 C16.3420825,24.2062346 16.6566839,24.4962008 17.0412152,24.4962008 L24.3489014,24.4962008 C24.7524944,24.4962008 25.0796755,24.1770879 25.0796755,23.7834475 L25.0796755,11.72547 C25.0796206,11.331776 24.7524395,11.0126631 24.3488465,11.0126631 Z" id="Shape" fill-rule="nonzero"></path>
                        </g>
                    </g>
                </g>
            </g>
        </g>
    </g>
</svg>