<?xml version="1.0" encoding="UTF-8"?>
<svg width="25px" height="24px" viewBox="0 0 25 24" version="1.1" xmlns="http://www.w3.org/2000/svg" xmlns:xlink="http://www.w3.org/1999/xlink">
    <!-- Generator: Sketch 48.2 (47327) - http://www.bohemiancoding.com/sketch -->
    <title>ic/Tabbar/important_places</title>
    <desc>Created with Sketch.</desc>
    <defs></defs>
    <g id="ic/Tabbar/important_places" stroke="none" stroke-width="1" fill="none" fill-rule="evenodd" transform="translate(-12.000000, -4.000000)">
        <g transform="translate(12.000000, 4.000000)" fill="#8E8E93" fill-rule="nonzero" id="Shape">
            <path d="M23.075,9.82723214 L18.209375,9.82723214 C17.9625,9.82723214 17.7629464,10.0267857 17.7629464,10.2736607 C17.7629464,10.5205357 17.9625,10.7200893 18.209375,10.7200893 L22.2727679,10.7200893 L23.5669643,22.7736607 L1.0125,22.7736607 L2.53169643,10.7200893 L6.60223214,10.7200893 C6.84910714,10.7200893 7.04866071,10.5205357 7.04866071,10.2736607 C7.04866071,10.0267857 6.84910714,9.82723214 6.60223214,9.82723214 L1.74419643,9.82723214 L0,23.6665179 L24.5611607,23.6665179 L23.075,9.82723214 Z"></path>
            <path d="M11.8991071,16.95 C11.8334821,16.9888393 11.7633929,17.0232143 11.7004464,17.0638393 C11.6022321,17.1272321 11.50625,17.19375 11.4120536,17.2625 C11.2133929,17.4084821 11.1705357,17.6879464 11.3160714,17.8866071 C11.4035714,18.0058036 11.5392857,18.06875 11.6767857,18.06875 C11.7683036,18.06875 11.8607143,18.040625 11.940625,17.9825893 C12.0200893,17.9241071 12.1008929,17.8678571 12.1852679,17.8133929 C12.3285714,17.7205357 12.4808036,17.6334821 12.6379464,17.5540179 C12.846875,17.4482143 12.9316964,17.2008929 12.8441964,16.9875 C12.8477679,16.9839286 12.8522321,16.98125 12.8553571,16.9776786 C13.6629464,16.1223214 16.384375,12.9169643 17.5111607,7.57678571 C17.7397321,6.49375 17.7910714,5.45446429 17.6638393,4.48794643 C17.2799107,1.55267857 15.45625,0.000892857143 12.3901786,0.000892857143 C9.325,0.000892857143 7.50133929,1.55267857 7.11651786,4.48794643 C6.98973214,5.45491071 7.04107143,6.49419643 7.26964286,7.57678571 C8.38526786,12.8651786 11.0638393,16.0580357 11.8991071,16.95 Z M8.00178571,4.60446429 C8.32901786,2.10803571 9.76473214,0.894196429 12.390625,0.894196429 C15.0169643,0.894196429 16.4522321,2.10803571 16.7790179,4.60446429 C16.8928571,5.47053571 16.8450893,6.409375 16.6379464,7.39330357 C15.625,12.19375 13.2098214,15.2397321 12.390625,16.1638393 C11.5705357,15.2388393 9.15580357,12.1915179 8.14330357,7.39330357 C7.93571429,6.409375 7.88839286,5.47098214 8.00178571,4.60446429 Z"></path>
            <path d="M12.390625,8.44866071 C14.1991071,8.44866071 15.6700893,6.97767857 15.6700893,5.16919643 C15.6700893,3.36071429 14.1991071,1.88973214 12.390625,1.88973214 C10.5821429,1.88973214 9.11116071,3.36071429 9.11116071,5.16919643 C9.11116071,6.97767857 10.5821429,8.44866071 12.390625,8.44866071 Z M12.390625,2.78303571 C13.70625,2.78303571 14.7772321,3.85357143 14.7772321,5.16964286 C14.7772321,6.48571429 13.7066964,7.55625 12.390625,7.55625 C11.0745536,7.55625 10.0040179,6.48571429 10.0040179,5.16964286 C10.0040179,3.85357143 11.075,2.78303571 12.390625,2.78303571 Z"></path>
            <path d="M14.0303571,16.1473214 C13.7892857,16.1982143 13.6357143,16.4357143 13.6870536,16.6772321 C13.7316964,16.8870536 13.9169643,17.0303571 14.1232143,17.0303571 C14.1540179,17.0303571 14.1857143,17.0272321 14.2169643,17.0205357 C14.4785714,16.9651786 14.7620536,16.9183036 15.0589286,16.8808036 C15.3035714,16.8508929 15.4776786,16.6276786 15.446875,16.3830357 C15.4165179,16.1379464 15.1955357,15.9611607 14.9491071,15.9950893 C14.6263393,16.0348214 14.3169643,16.0861607 14.0303571,16.1473214 Z"></path>
            <path d="M16.3388393,16.3285714 C16.3486607,16.5683036 16.546875,16.7558036 16.784375,16.7558036 C16.7910714,16.7558036 16.7973214,16.7558036 16.8040179,16.7553571 L17.6973214,16.7183036 C17.9433036,16.7071429 18.134375,16.4982143 18.1227679,16.2522321 C18.1116071,16.0053571 17.8821429,15.8129464 17.6566964,15.8263393 L16.765625,15.8633929 C16.5191964,15.8736607 16.328125,16.0816964 16.3388393,16.3285714 Z"></path>
            <path d="M10.0147321,18.3825893 C9.78526786,18.5558036 9.54821429,18.7223214 9.309375,18.8767857 C9.10267857,19.0111607 9.04375,19.2875 9.178125,19.4946429 C9.26339286,19.6263393 9.40714286,19.6977679 9.553125,19.6977679 C9.63660714,19.6977679 9.72053571,19.6745536 9.79598214,19.6258929 C10.0517857,19.4598214 10.3066964,19.28125 10.5526786,19.0955357 C10.7491071,18.946875 10.7883929,18.6669643 10.6401786,18.4700893 C10.4915179,18.275 10.2125,18.2339286 10.0147321,18.3825893 Z"></path>
            <path d="M19.9642857,15.4388393 C19.8133929,15.5446429 19.6174107,15.6214286 19.3633929,15.6736607 C19.121875,15.7232143 18.9665179,15.9598214 19.0165179,16.2013393 C19.0602679,16.4125 19.2459821,16.5575893 19.4535714,16.5575893 C19.4834821,16.5575893 19.5138393,16.5544643 19.5441964,16.5482143 C19.9200893,16.4705357 20.2254464,16.3464286 20.4799107,16.1674107 L20.5397321,16.1236607 C20.7361607,15.9745536 20.775,15.6946429 20.6263393,15.4982143 C20.4772321,15.3017857 20.1977679,15.2633929 20.0008929,15.4116071 L19.9642857,15.4388393 Z"></path>
            <path d="M3.95535714,18.9294643 C4.02008929,18.6915179 3.87901786,18.4464286 3.64107143,18.3821429 C3.40491071,18.315625 3.15803571,18.4575893 3.09375,18.6964286 C3.0375,18.9035714 3.00401786,19.1151786 2.99330357,19.3236607 C2.99107143,19.375 2.98973214,19.4267857 2.98973214,19.48125 C2.99017857,19.56875 2.99419643,19.65625 3.00267857,19.7433036 C3.02633929,19.9732143 3.22008929,20.1441964 3.44642857,20.1441964 C3.46116071,20.1441964 3.47633929,20.1433036 3.49241071,20.1419643 C3.7375,20.1165179 3.91607143,19.8977679 3.89151786,19.6522321 C3.88526786,19.59375 3.88303571,19.534375 3.88258929,19.478125 C3.88258929,19.4410714 3.88392857,19.4040179 3.88571429,19.3674107 C3.89285714,19.2227679 3.91607143,19.075 3.95535714,18.9294643 Z"></path>
            <path d="M19.9544643,11.96875 C19.6,11.9214286 19.2383929,11.9504464 18.8892857,12.0495536 C18.6517857,12.1160714 18.5138393,12.3629464 18.58125,12.6 C18.6366071,12.796875 18.815625,12.9254464 19.0102679,12.9254464 C19.0508929,12.9254464 19.0915179,12.9200893 19.1316964,12.9084821 C19.3638393,12.8433036 19.6026786,12.8227679 19.8348214,12.8540179 C20.0857143,12.8852679 20.3044643,12.7151786 20.3370536,12.4714286 C20.3700893,12.2263393 20.1986607,12.0017857 19.9544643,11.96875 Z"></path>
            <path d="M20.8428571,14.1803571 C20.7700893,14.415625 20.9022321,14.6660714 21.1375,14.7383929 C21.1816964,14.7522321 21.2254464,14.7584821 21.2691964,14.7584821 C21.4602679,14.7584821 21.6366071,14.6357143 21.6955357,14.44375 C21.7397321,14.3017857 21.7669643,14.1575893 21.7772321,14.0138393 C21.7794643,13.9767857 21.7808036,13.9392857 21.7808036,13.9022321 C21.7808036,13.6933036 21.7424107,13.4839286 21.6669643,13.2808036 C21.58125,13.0491071 21.3227679,12.9321429 21.0933036,13.0174107 C20.8616071,13.103125 20.7441964,13.3602679 20.8299107,13.5910714 C20.8683036,13.6946429 20.8879464,13.7995536 20.8879464,13.9017857 L20.8866071,13.9540179 C20.88125,14.028125 20.8669643,14.1022321 20.8428571,14.1803571 Z"></path>
            <path d="M7.80401786,19.7160714 C7.54241071,19.8388393 7.27589286,19.9526786 7.01205357,20.0549107 C6.78214286,20.1433036 6.66785714,20.4017857 6.75669643,20.6321429 C6.825,20.8089286 6.99375,20.9178571 7.17321429,20.9178571 C7.22678571,20.9178571 7.28125,20.9084821 7.33392857,20.8879464 C7.61741071,20.7785714 7.903125,20.65625 8.18348214,20.525 C8.40669643,20.4205357 8.50267857,20.1544643 8.39776786,19.93125 C8.29375,19.7075893 8.02857143,19.6107143 7.80401786,19.7160714 Z"></path>
            <path d="M4.55401786,17.8575893 C4.62589286,17.8575893 4.69910714,17.8401786 4.76741071,17.803125 C4.89598214,17.7330357 5.03303571,17.6892857 5.17410714,17.6741071 C5.234375,17.6669643 5.29598214,17.6669643 5.35535714,17.675 C5.60669643,17.7075893 5.82410714,17.5352679 5.85625,17.2910714 C5.88839286,17.0464286 5.71651786,16.8223214 5.47232143,16.7901786 C5.33928571,16.7727679 5.20401786,16.771875 5.07455357,16.7866071 C4.81830357,16.8147321 4.57098214,16.8933036 4.33973214,17.0191964 C4.12321429,17.1375 4.04330357,17.4080357 4.16160714,17.6245536 C4.24285714,17.7736607 4.39598214,17.8575893 4.55401786,17.8575893 Z"></path>
            <path d="M4.46116071,21.3580357 C4.55758929,21.3830357 4.65580357,21.4017857 4.753125,21.4133929 C4.86741071,21.4272321 4.98169643,21.434375 5.09642857,21.434375 C5.23616071,21.434375 5.37633929,21.4245536 5.51607143,21.4066964 C5.76071429,21.3758929 5.934375,21.1526786 5.903125,20.9080357 C5.871875,20.6633929 5.65,20.4910714 5.40446429,20.5209821 C5.22410714,20.5441964 5.04196429,20.5495536 4.86160714,20.5276786 C4.80267857,20.5200893 4.74375,20.5089286 4.68571429,20.4941964 C4.446875,20.4303571 4.20357143,20.575 4.14107143,20.8138393 C4.07991071,21.0526786 4.22276786,21.2964286 4.46116071,21.3580357 Z"></path>
        </g>
    </g>
</svg>