<?xml version="1.0" encoding="UTF-8"?>
<svg width="24px" height="26px" viewBox="0 0 24 26" version="1.1" xmlns="http://www.w3.org/2000/svg" xmlns:xlink="http://www.w3.org/1999/xlink">
    <!-- Generator: Sketch 48.2 (47327) - http://www.bohemiancoding.com/sketch -->
    <title>ic/Tabbar/educational_content</title>
    <desc>Created with Sketch.</desc>
    <defs></defs>
    <g id="ic/Tabbar/educational_content" stroke="none" stroke-width="1" fill="none" fill-rule="evenodd" transform="translate(-12.000000, -3.000000)">
        <g transform="translate(12.000000, 3.000000)" fill="#8E8E93" fill-rule="nonzero" id="Shape">
            <path d="M16.5376052,2.95043393 L17.2233475,1.79792496 C17.3789364,1.51842088 17.7218271,1.42336052 18.001292,1.57894943 C18.2807569,1.73453834 18.3758564,2.07742904 18.2202675,2.35689396 L17.5345253,3.50940294 C17.442323,3.69670473 17.2233475,3.78890701 17.0360457,3.78890701 C16.9438434,3.78890701 16.8487439,3.75719413 16.7565808,3.72552039 C16.4742186,3.57278956 16.3820163,3.23279608 16.5376052,2.95043393 Z M6.45596085,3.51230016 C6.54816313,3.69960196 6.76713866,3.79180424 6.95444046,3.79180424 C7.04664274,3.79180424 7.14174225,3.76009135 7.23394454,3.72841762 C7.51344861,3.57282871 7.60850897,3.22993801 7.45292007,2.95047308 L6.76717781,1.79796411 C6.61158891,1.51846003 6.26869821,1.42339967 5.98923328,1.57898858 C5.70976835,1.73457749 5.61466884,2.07746819 5.77025775,2.35693312 L6.45596085,3.51230016 Z M11.993814,2.45485155 C12.3049918,2.45485155 12.552783,2.20706036 12.552783,1.89588254 L12.552783,0.558969005 C12.552783,0.247791191 12.3049918,0 11.993814,0 C11.6826362,0 11.434845,0.247791191 11.434845,0.558969005 L11.434845,1.89588254 C11.4031321,2.20420228 11.6509233,2.45485155 11.993814,2.45485155 Z M1.91216966,11.3839869 L0.575256117,11.3839869 C0.264078303,11.3839869 0.0162871126,11.6317781 0.0162871126,11.942956 C0.0162871126,12.2541338 0.264078303,12.501925 0.575256117,12.501925 L1.91216966,12.501925 C2.22334747,12.501925 2.47113866,12.2541338 2.47113866,11.942956 C2.47113866,11.6317781 2.22334747,11.3839869 1.91216966,11.3839869 Z M23.4152692,11.3839869 L22.0783556,11.3839869 C21.7671778,11.3839869 21.5193866,11.6317781 21.5193866,11.942956 C21.5193866,12.2541338 21.7671778,12.501925 22.0783556,12.501925 L23.4152692,12.501925 C23.726447,12.501925 23.9742382,12.2541338 23.9742382,11.942956 C23.9742382,11.6317781 23.726447,11.3839869 23.4152692,11.3839869 Z M22.3866362,5.97004894 C22.2310473,5.69054486 21.8881566,5.5954845 21.6086917,5.75107341 L20.4561827,6.43681566 C20.1767178,6.59240457 20.0816183,6.93529527 20.2372072,7.2147602 C20.3294095,7.40206199 20.548385,7.49426427 20.7356868,7.49426427 C20.8278891,7.49426427 20.9229886,7.46255139 21.0151517,7.43087765 L22.1676607,6.7451354 C22.4500228,6.59240457 22.5422251,6.24951387 22.3866362,5.97004894 Z M19.3382447,11.8824666 C19.3382447,13.1588907 18.995354,14.403602 18.3729984,15.5244372 C18.3413246,15.6166395 18.3096117,15.6800261 18.2490832,15.7434127 L18.1856966,15.835615 C17.9379054,16.2101794 17.687217,16.5818858 17.3760392,16.8930636 C16.2869168,18.417279 15.7279478,19.7253768 15.7567635,20.5638499 L15.7567635,20.5955628 C15.7567635,20.6589494 15.7884763,20.7511517 15.7884763,20.843354 L15.7884763,23.5200783 C15.7884763,24.7014029 14.82323,25.6349364 13.6736183,25.6349364 L10.2218467,25.6349364 C9.04052202,25.6349364 8.10698858,24.66969 8.10698858,23.5200783 L8.10698858,20.843354 C8.10698858,20.7799674 8.10698858,20.7511517 8.10698858,20.6877651 C8.10698858,20.6560522 8.10698858,20.5955628 8.10698858,20.5638891 C8.13870147,19.7542316 7.57683524,18.4778467 6.55109951,16.9853051 C6.20820881,16.6107406 5.86535726,16.2073605 5.61756607,15.7405938 C5.58589233,15.6772072 5.55417945,15.6483915 5.52536378,15.5850049 C4.87129527,14.4641697 4.52844372,13.1877847 4.52844372,11.9142186 C4.52844372,7.83719413 7.85923654,4.50929853 11.9333638,4.50929853 C16.0074519,4.47754649 19.3382447,7.80544209 19.3382447,11.8824666 Z M14.6388254,21.1544535 L9.25660033,21.1544535 L9.25660033,22.2119021 L14.6388254,22.2119021 L14.6388254,21.1544535 Z M14.6388254,23.5833866 L14.6388254,23.3644111 L9.25660033,23.3644111 L9.25660033,23.5833866 C9.31998695,24.0818662 9.72336705,24.4535334 10.2218467,24.4535334 L13.6765155,24.4535334 C14.1720587,24.4535334 14.5783361,24.0818662 14.6388254,23.5833866 Z M18.1856966,11.8824666 C18.1856966,8.42779772 15.3850962,5.62715824 11.9303883,5.62715824 C8.47568026,5.62715824 5.67511909,8.42779772 5.67511909,11.8824666 C5.67511909,13.0033018 5.9862969,14.0924241 6.54526591,15.0576705 C6.54526591,15.0576705 6.54526591,15.0576705 6.54526591,15.0893442 C6.7930571,15.4927243 7.07541925,15.8672887 7.38659706,16.2101794 C7.41830995,16.2418923 7.41830995,16.2418923 7.44998369,16.2735661 C8.47571941,17.7372529 9.06925938,18.9819641 9.22484829,20.007739 L14.6705383,20.007739 C14.8578401,18.7313148 15.7279869,17.2705253 16.5059315,16.1813638 C16.5059315,16.1496509 16.5376444,16.1496509 16.5693181,16.1179772 C16.8488222,15.8384731 17.0994715,15.4956215 17.283876,15.1527308 C17.283876,15.1210179 17.3155889,15.1210179 17.3155889,15.0893442 C17.3155889,15.0576313 17.3473018,15.0576705 17.3473018,15.0259576 C17.9062316,14.0924241 18.1856966,13.0033018 18.1856966,11.8824666 Z M3.53144535,6.43681566 L2.37893638,5.75107341 C2.0994323,5.5954845 1.75658075,5.68768679 1.60099184,5.97004894 C1.44540294,6.24955302 1.53760522,6.59240457 1.81996737,6.74799347 L2.97247635,7.43373573 C3.06467863,7.49712235 3.15977814,7.49712235 3.25198042,7.49712235 C3.43928222,7.49712235 3.65536052,7.40492007 3.75046003,7.21761827 C3.90315171,6.93529527 3.81094943,6.59240457 3.53144535,6.43681566 Z"></path>
        </g>
    </g>
</svg>