<?xml version="1.0" encoding="UTF-8"?>
<svg width="21px" height="24px" viewBox="0 0 21 24" version="1.1" xmlns="http://www.w3.org/2000/svg" xmlns:xlink="http://www.w3.org/1999/xlink">
    <!-- Generator: Sketch 48.2 (47327) - http://www.bohemiancoding.com/sketch -->
    <title>ic/Tabbar/insurance_companies</title>
    <desc>Created with Sketch.</desc>
    <defs></defs>
    <g id="ic/Tabbar/insurance_companies" stroke="none" stroke-width="1" fill="none" fill-rule="evenodd" transform="translate(-14.000000, -4.000000)">
        <g transform="translate(14.000000, 4.000000)" fill="#8E8E93" fill-rule="nonzero" id="Shape">
            <path d="M16.8530156,8.14701562 C16.6580156,7.95201562 16.341,7.95201562 16.146,8.14701562 L9.50001562,14.793 L5.853,11.1470156 C5.658,10.9520156 5.34098437,10.9520156 5.14598438,11.1470156 C4.95098437,11.3420156 4.95098437,11.6590313 5.14598438,11.8540313 L9.14596875,15.8540156 C9.24398438,15.951 9.37195312,16.0000313 9.49996875,16.0000313 C9.62798437,16.0000313 9.75595312,15.9510469 9.85298437,15.8540156 L16.8529687,8.85403125 C17.0480156,8.65898437 17.0480156,8.34201563 16.8530156,8.14701562 Z"></path>
            <path d="M20.643,3.021 L10.6430156,0.021 C10.5490313,-0.006984375 10.4500313,-0.006984375 10.356,0.021 L0.356015625,3.021 C0.144984375,3.084 0,3.279 0,3.50001562 L0,14.5000312 C0,18.9220312 6.74198438,22.8550312 10.3520156,23.9780156 C10.4000156,23.9930156 10.4500313,24 10.5,24 C10.5499688,24 10.5999844,23.9930156 10.6479844,23.9780156 C14.2580156,22.854 21,18.9219844 21,14.4999844 L21,3.50001562 C21,3.279 20.8550156,3.08498437 20.643,3.021 Z M20.0000156,14.4999844 C20.0000156,18.0109687 14.4370312,21.7029844 10.5,22.9759687 C6.56301562,21.7029844 0.999984375,18.0109687 0.999984375,14.4999844 L0.999984375,3.87201562 L10.5,1.02201562 L20.0000156,3.87201562 L20.0000156,14.4999844 Z"></path>
        </g>
    </g>
</svg>