<?xml version="1.0" encoding="UTF-8"?>
<svg width="40px" height="38px" viewBox="0 0 40 38" version="1.1" xmlns="http://www.w3.org/2000/svg" xmlns:xlink="http://www.w3.org/1999/xlink">
    <!-- Generator: Sketch 49.2 (51160) - http://www.bohemiancoding.com/sketch -->
    <title>important place</title>
    <desc>Created with Sketch.</desc>
    <defs></defs>
    <g id="Page-9" stroke="none" stroke-width="1" fill="none" fill-rule="evenodd">
        <g id="0.0.0---0-Home" transform="translate(-110.000000, -236.000000)" fill="#7E57C2" fill-rule="nonzero">
            <g id="Categories" transform="translate(12.000000, 20.000000)">
                <g id="ic/Tabbar/important_places_active" transform="translate(79.000000, 210.000000)">
                    <path d="M56.6291532,21.8272736 L48.7735232,21.8272736 C48.3749395,21.8272736 48.0527571,22.1422832 48.0527571,22.531993 C48.0527571,22.9217028 48.3749395,23.2367124 48.7735232,23.2367124 L55.3339365,23.2367124 L57.4234375,42.2641358 L21.0088911,42.2641358 L23.4616583,23.2367124 L30.0336038,23.2367124 C30.4321875,23.2367124 30.75437,22.9217028 30.75437,22.531993 C30.75437,22.1422832 30.4321875,21.8272736 30.0336038,21.8272736 L22.1902268,21.8272736 L19.3741935,43.6735746 L59.0285837,43.6735746 L56.6291532,21.8272736 Z" id="Shape"></path>
                    <path d="M38.585494,33.0710714 C38.4795413,33.132382 38.366381,33.1866454 38.264753,33.2507749 C38.1061845,33.350845 37.9512198,33.4558482 37.7991381,33.564375 C37.4783972,33.7948182 37.4092036,34.2359726 37.6441734,34.5495727 C37.7854435,34.7377328 38.0045565,34.8370982 38.2265524,34.8370982 C38.3743095,34.8370982 38.5235081,34.7927009 38.6525252,34.7010874 C38.7808216,34.6087691 38.9112802,34.5199745 39.047505,34.4339987 C39.278871,34.2874171 39.5246522,34.1499968 39.7783619,34.0245568 C40.1156804,33.8575383 40.252626,33.4671237 40.1113558,33.1302679 C40.117122,33.1246301 40.1243296,33.1204018 40.129375,33.114764 C41.4332409,31.7645217 45.8270312,26.7046365 47.646245,18.2747832 C48.0152772,16.5651339 48.0981653,14.9245472 47.892747,13.3988297 C47.2728881,8.76529974 44.3285585,6.31569515 39.3783367,6.31569515 C34.4295565,6.31569515 31.4852268,8.76529974 30.8639264,13.3988297 C30.6592288,14.9252519 30.7421169,16.5658386 31.1111492,18.2747832 C32.9123437,26.622889 37.2369405,31.6630421 38.585494,33.0710714 Z M32.2932056,13.5827615 C32.8215272,9.64197066 35.1395111,7.72583865 39.3790575,7.72583865 C43.6193246,7.72583865 45.9365877,9.64197066 46.4641885,13.5827615 C46.6479839,14.9499171 46.5708619,16.431942 46.2364264,17.9851435 C44.6010081,25.5629911 40.7016633,30.3712915 39.3790575,31.8300606 C38.0550101,30.369882 34.1563861,25.5594675 32.5216885,17.9851435 C32.1865323,16.431942 32.110131,14.9506218 32.2932056,13.5827615 Z" id="Shape"></path>
                    <path d="M39.3790575,19.6511001 C42.298881,19.6511001 44.6738054,17.3290497 44.6738054,14.4742315 C44.6738054,11.6194133 42.298881,9.29736288 39.3790575,9.29736288 C36.4592339,9.29736288 34.0843095,11.6194133 34.0843095,14.4742315 C34.0843095,17.3290497 36.4592339,19.6511001 39.3790575,19.6511001 Z M39.3790575,10.7075064 C41.5031552,10.7075064 43.2322732,12.3974235 43.2322732,14.4749362 C43.2322732,16.552449 41.503876,18.2423661 39.3790575,18.2423661 C37.2542389,18.2423661 35.5258417,16.552449 35.5258417,14.4749362 C35.5258417,12.3974235 37.2549597,10.7075064 39.3790575,10.7075064 Z" id="Shape"></path>
                    <path d="M42.0264315,31.803986 C41.6372177,31.884324 41.3892742,32.2592347 41.4721623,32.6404879 C41.5442389,32.971706 41.8433569,33.1979209 42.1763508,33.1979209 C42.2260837,33.1979209 42.2772581,33.1929879 42.3277117,33.1824171 C42.7500806,33.0950319 43.2077671,33.0210364 43.6870766,32.9618399 C44.0820565,32.9146237 44.3631552,32.562264 44.3134224,32.1760778 C44.2644103,31.7891869 43.907631,31.510118 43.5097681,31.5636767 C42.9886542,31.6263967 42.4891633,31.7074394 42.0264315,31.803986 Z" id="Shape"></path>
                    <path d="M45.7535131,32.090102 C45.76937,32.4685364 46.0893901,32.7645185 46.4728377,32.7645185 C46.4836492,32.7645185 46.4937399,32.7645185 46.5045514,32.7638138 L47.9468044,32.7053221 C48.3439466,32.6877041 48.6524345,32.3578954 48.6336946,31.969595 C48.6156754,31.5798852 48.2452016,31.2761511 47.8812147,31.2972927 L46.4425655,31.3557844 C46.0447026,31.371993 45.7362147,31.7003922 45.7535131,32.090102 Z" id="Shape"></path>
                    <path d="M35.5431401,35.3325159 C35.1726663,35.6059471 34.7899395,35.8688074 34.4043296,36.1126403 C34.0706149,36.3247608 33.9754738,36.7609821 34.1924244,37.0879719 C34.3300907,37.2958642 34.5621774,37.4086193 34.7978679,37.4086193 C34.9326512,37.4086193 35.0681552,37.3719739 35.1899647,37.2951594 C35.6029637,37.0330038 36.0145212,36.7511161 36.4116633,36.4579528 C36.7288004,36.2232813 36.7922278,35.7814222 36.5529335,35.4706409 C36.3129183,35.1626786 35.8624395,35.0978444 35.5431401,35.3325159 Z" id="Shape"></path>
                    <path d="M51.6068548,30.6855963 C51.3632359,30.8526148 51.0468196,30.9738265 50.6367036,31.0562787 C50.2467692,31.1345026 49.9959425,31.5080038 50.0766683,31.889257 C50.1473034,32.2225893 50.4471421,32.4516231 50.7822984,32.4516231 C50.8305897,32.4516231 50.8796018,32.4466901 50.9286139,32.436824 C51.535499,32.3142028 52.028503,32.1182908 52.4393397,31.8356983 L52.5359224,31.7666358 C52.8530595,31.5312596 52.9157661,31.0894005 52.675751,30.779324 C52.4350151,30.4692474 51.9838155,30.4086416 51.6659577,30.6426084 L51.6068548,30.6855963 Z" id="Shape"></path>
                    <path d="M25.7601815,36.1957972 C25.8646925,35.8201818 25.6369304,35.4332908 25.2527621,35.3318112 C24.8714768,35.226808 24.4728931,35.4509088 24.3691028,35.8279337 C24.2782863,36.1549235 24.2242288,36.4889605 24.2069304,36.8180644 C24.2033266,36.8991071 24.2011643,36.9808546 24.2011643,37.0668304 C24.2018851,37.2049554 24.208372,37.3430804 24.2220665,37.4805006 C24.2602671,37.8434311 24.5730796,38.1133386 24.9385081,38.1133386 C24.9622933,38.1133386 24.9867994,38.1119292 25.012747,38.1098151 C25.4084476,38.069646 25.696754,37.7243335 25.6571119,37.3367379 C25.6470212,37.2444196 25.6434173,37.150692 25.6426966,37.0618973 C25.6426966,37.0034056 25.6448589,36.9449139 25.6477419,36.8871269 C25.6592742,36.6587978 25.696754,36.4255357 25.7601815,36.1957972 Z" id="Shape"></path>
                    <path d="M51.590998,25.2078125 C51.0187097,25.1331122 50.4348891,25.178919 49.87125,25.3353667 C49.4878024,25.4403699 49.2650857,25.8300797 49.3739214,26.2042857 C49.4632964,26.515067 49.7523236,26.7180261 50.0665776,26.7180261 C50.1321673,26.7180261 50.1977571,26.7095695 50.262626,26.6912468 C50.6374244,26.5883578 51.0230343,26.5559407 51.3978327,26.605271 C51.8029032,26.6546014 52.1560786,26.3861033 52.2086946,26.0013265 C52.2620313,25.6144356 51.9852571,25.2599617 51.590998,25.2078125 Z" id="Shape"></path>
                    <path d="M53.0253226,28.6989923 C52.9078377,29.0703795 53.1211845,29.465727 53.5010282,29.5798916 C53.5723841,29.6017379 53.6430192,29.611604 53.7136542,29.611604 C54.0221421,29.611604 54.3068448,29.4178061 54.4019859,29.1147768 C54.4733417,28.890676 54.5173085,28.6630517 54.5338861,28.436132 C54.5374899,28.3776403 54.5396522,28.3184439 54.5396522,28.2599522 C54.5396522,27.9301435 54.4776663,27.5996301 54.3558569,27.2789828 C54.2174698,26.9132334 53.8001462,26.7285969 53.4296724,26.8631983 C53.0555948,26.9985045 52.8660333,27.4044228 53.0044204,27.7687628 C53.0664063,27.9322577 53.09812,28.0978667 53.09812,28.2592474 L53.0959577,28.3416996 C53.0873085,28.458683 53.064244,28.5756665 53.0253226,28.6989923 Z" id="Shape"></path>
                    <path d="M31.9739062,37.4375128 C31.5515373,37.6313106 31.1212399,37.811014 30.6952671,37.9723948 C30.3240726,38.1119292 30.1395565,38.5199617 30.2829889,38.8835969 C30.3932661,39.1626658 30.6657157,39.3346173 30.9554637,39.3346173 C31.0419556,39.3346173 31.1298891,39.3198182 31.2149395,39.2874011 C31.672626,39.1147449 32.1339163,38.9216518 32.5865575,38.7144643 C32.9469405,38.5495599 33.1019052,38.1295472 32.9325252,37.7771875 C32.7645867,37.4241231 32.3364516,37.271199 31.9739062,37.4375128 Z" id="Shape"></path>
                    <path d="M26.7267288,34.5037659 C26.8427722,34.5037659 26.9609778,34.4762819 27.071255,34.4177902 C27.2788357,34.3071492 27.5001109,34.2380867 27.727873,34.2141263 C27.8251764,34.2028508 27.9246421,34.2028508 28.020504,34.2155357 C28.4262954,34.2669802 28.7773085,33.9949585 28.8292036,33.609477 C28.8810988,33.2232908 28.6036038,32.8695217 28.2093448,32.8187819 C27.9945565,32.7912978 27.7761643,32.7898884 27.5671421,32.8131441 C27.1534224,32.8575415 26.7541179,32.9815721 26.3807611,33.1803029 C26.0311895,33.3670536 25.9021724,33.7941135 26.0931754,34.1359024 C26.2243548,34.3712787 26.4715776,34.5037659 26.7267288,34.5037659 Z" id="Shape"></path>
                    <path d="M26.5768095,40.0294707 C26.732495,40.0689349 26.8910635,40.0985332 27.0481905,40.1168559 C27.2327067,40.1387022 27.4172228,40.1499777 27.6024597,40.1499777 C27.8280595,40.1499777 28.05438,40.1344739 28.2799798,40.1062851 C28.6749597,40.0576594 28.9553377,39.7052997 28.9048841,39.3191135 C28.8544304,38.9329273 28.4962097,38.6609056 28.0997883,38.7081218 C27.8085988,38.7447672 27.5145262,38.7532239 27.2233367,38.7186926 C27.1281956,38.7067124 27.0330544,38.6890944 26.9393548,38.6658386 C26.553745,38.5650638 26.1609274,38.7933929 26.0600202,39.1704177 C25.9612752,39.5474426 26.1919204,39.9322194 26.5768095,40.0294707 Z" id="Shape"></path>
                </g>
            </g>
        </g>
    </g>
</svg>