<?xml version="1.0" encoding="UTF-8"?>
<svg width="37px" height="39px" viewBox="0 0 37 39" version="1.1" xmlns="http://www.w3.org/2000/svg" xmlns:xlink="http://www.w3.org/1999/xlink">
    <!-- Generator: Sketch 49.2 (51160) - http://www.bohemiancoding.com/sketch -->
    <title>infographics</title>
    <desc>Created with Sketch.</desc>
    <defs></defs>
    <g id="Page-9" stroke="none" stroke-width="1" fill="none" fill-rule="evenodd">
        <g id="0.0.0---0-Home" transform="translate(-54.000000, -149.000000)" fill="#7E57C2" fill-rule="nonzero">
            <g id="Categories" transform="translate(12.000000, 20.000000)">
                <g id="Group-Copy-3" transform="translate(0.000000, 98.000000)">
                    <g id="Group-2" transform="translate(16.000000, 25.000000)">
                        <g id="ic/Tabbar/infographic" transform="translate(5.000000, 0.000000)">
                            <path d="M32.8741843,31.1023673 C34.3292258,31.1023673 35.7210046,30.6384606 36.8834562,29.7725015 C37.0732442,29.6333294 37.4528203,29.0998367 36.9625346,28.566344 L32.9295392,24.6076735 L32.9295392,19.0175977 C32.8662765,18.2598834 32.2336498,18.1902974 31.9964147,18.2212245 C28.7225714,18.6464723 26.2553272,21.3989854 26.2553272,24.6308688 C26.2553272,28.1952187 29.2286728,31.1023673 32.8741843,31.1023673 Z M31.2768018,20.0304606 L31.2768018,24.623137 C31.2768018,25.0406531 31.4428664,25.4349738 31.7433641,25.7287813 L35.0646544,28.9761283 C34.3845806,29.3085948 33.6412442,29.4786939 32.8662765,29.4786939 C30.1222581,29.4786939 27.9001567,27.2983324 27.9001567,24.623137 C27.9080645,22.5278251 29.2998433,20.6876618 31.2768018,20.0304606 Z" id="Shape"></path>
                            <path d="M38.0538157,27.6462624 C38.6152719,28.1256327 39.1450968,27.7467755 39.2874378,27.5689446 C40.181023,26.4323732 40.6475853,25.0715802 40.6475853,23.6489329 C40.6475853,20.4247813 38.180341,17.6645364 34.9064977,17.2392886 C34.5506452,17.192898 34.0050046,17.3939242 33.9733733,18.0356618 L33.9733733,23.33193 C33.9733733,23.5484198 34.0603594,23.7494461 34.2185161,23.9040816 L38.0538157,27.6462624 Z M35.6340184,19.0485248 C37.610977,19.7057259 39.0106636,21.5381574 39.0106636,23.6412012 C39.0106636,24.3989155 38.8366912,25.1257026 38.4966544,25.7906356 L35.6419263,22.9994636 L35.6419263,19.0485248 L35.6340184,19.0485248 Z" id="Shape"></path>
                            <path d="M53.4740922,6.31428571 L24.8793641,6.31428571 C22.7442488,6.31428571 21.0124332,8.01527697 21.0124332,10.0951254 C21.0124332,11.5564315 21.8664793,12.8321749 23.1159171,13.458449 L23.1159171,35.2543324 C23.1159171,35.7027755 23.4875853,36.0584373 23.9383318,36.0584373 L38.3622212,36.0584373 L38.3622212,38.9191953 L34.368765,42.8237434 C34.0445438,43.1407464 34.0445438,43.6510437 34.368765,43.9603149 C34.6929862,44.2773178 35.2149032,44.2773178 35.5312166,43.9603149 L39.1846359,40.3882332 L42.8380553,43.9603149 C43.3678802,44.408758 43.8423502,44.1149504 44.0005069,43.9603149 C44.3247281,43.643312 44.3247281,43.1330146 44.0005069,42.8237434 L40.0070507,38.9191953 L40.0070507,36.0584373 L54.4309401,36.0584373 C54.8895945,36.0584373 55.2533548,35.6950437 55.2533548,35.2543324 L55.2533548,13.458449 C56.4948848,12.8321749 57.3489309,11.5564315 57.3489309,10.0951254 C57.3489309,8.01527697 55.6092074,6.31428571 53.4740922,6.31428571 Z M53.6006175,34.4502274 L24.7528387,34.4502274 L24.7528387,13.8836968 L53.6006175,13.8836968 L53.6006175,34.4502274 Z M53.4740922,12.2677551 L24.8793641,12.2677551 C23.6536498,12.2677551 22.6572627,11.293551 22.6572627,10.0951254 C22.6572627,8.89669971 23.6536498,7.92249563 24.8793641,7.92249563 L53.482,7.92249563 C54.7077143,7.92249563 55.7041014,8.89669971 55.7041014,10.0951254 C55.6961935,11.293551 54.6998065,12.2677551 53.4740922,12.2677551 Z" id="Shape"></path>
                            <path d="M51.2757143,30.7853644 C51.7343687,30.7853644 52.098129,30.4219708 52.098129,29.9812595 L52.098129,18.3526647 C52.098129,17.9042216 51.7264608,17.5485598 51.2757143,17.5485598 C50.8170599,17.5485598 50.4532995,17.9119534 50.4532995,18.3526647 L50.4532995,29.9812595 C50.4453917,30.4297026 50.8170599,30.7853644 51.2757143,30.7853644 Z" id="Shape"></path>
                            <path d="M47.6855576,30.7853644 C48.144212,30.7853644 48.5079724,30.4219708 48.5079724,29.9812595 L48.5079724,21.136105 C48.5079724,20.6876618 48.1363041,20.332 47.6855576,20.332 C47.2269032,20.332 46.8631429,20.6953936 46.8631429,21.136105 L46.8631429,29.9812595 C46.8631429,30.4297026 47.2348111,30.7853644 47.6855576,30.7853644 Z" id="Shape"></path>
                            <path d="M44.1033088,30.7853644 C44.5619631,30.7853644 44.9257235,30.4219708 44.9257235,29.9812595 L44.9257235,23.2546122 C44.9257235,22.8061691 44.5540553,22.4505073 44.1033088,22.4505073 C43.6446544,22.4505073 43.280894,22.8139009 43.280894,23.2546122 L43.280894,29.9812595 C43.280894,30.4297026 43.6525622,30.7853644 44.1033088,30.7853644 Z" id="Shape"></path>
                        </g>
                    </g>
                </g>
            </g>
        </g>
    </g>
</svg>