<?xml version="1.0" encoding="UTF-8"?>
<svg width="27px" height="24px" viewBox="0 0 27 24" version="1.1" xmlns="http://www.w3.org/2000/svg" xmlns:xlink="http://www.w3.org/1999/xlink">
    <!-- Generator: Sketch 48.2 (47327) - http://www.bohemiancoding.com/sketch -->
    <title>Group 2</title>
    <desc>Created with Sketch.</desc>
    <defs></defs>
    <g id="1.2.0---0-Driving-Schools---Details" stroke="none" stroke-width="1" fill="none" fill-rule="evenodd" transform="translate(-289.000000, -201.000000)">
        <g id="Group-4" transform="translate(16.000000, 185.000000)" fill="#7E57C2" fill-rule="nonzero">
            <g id="Group" transform="translate(254.000000, 16.000000)">
                <g id="Group-2" transform="translate(19.000000, 0.000000)">
                    <path d="M12.7419978,15.1561841 C12.9110662,15.3048709 13.1221549,15.3793939 13.3334231,15.3793939 C13.5446914,15.3793939 13.7558698,15.3048709 13.9248485,15.1561841 C14.1389899,14.9675421 19.167587,10.4853872 19.167587,5.83694725 C19.167587,2.61881033 16.5504826,0.000628507295 13.3335129,0.000628507295 C10.1164534,0.000628507295 7.49925926,2.61881033 7.49925926,5.83694725 C7.49907969,10.4853872 12.5278563,14.9675421 12.7419978,15.1561841 Z M13.3334231,4.31200898 C14.1686195,4.31200898 14.845881,4.9945679 14.845881,5.83694725 C14.845881,6.67923681 14.1686195,7.36188552 13.3334231,7.36188552 C12.4979574,7.36188552 11.8207856,6.67914703 11.8207856,5.83694725 C11.8207856,4.9945679 12.4979574,4.31200898 13.3334231,4.31200898 Z" id="Shape"></path>
                    <path d="M24.5438384,15.1535802 L23.8680135,12.785275 C23.7582941,12.4008979 23.407138,12.1359371 23.007587,12.1359371 L18.1843322,12.1359371 C18.0099663,12.3951515 17.8259933,12.6553535 17.6314254,12.9169921 C16.2795062,14.7333782 14.9051403,15.9620202 14.7527722,16.0963412 C14.360404,16.4418406 13.856431,16.6320988 13.3334231,16.6320988 C12.8107744,16.6320988 12.3068013,16.4420202 11.9138945,16.0961616 C11.7617059,15.9620202 10.3871605,14.7331987 9.03533109,12.9169921 C8.84076319,12.6553535 8.65679012,12.3950617 8.48242424,12.1359371 L3.65907969,12.1359371 C3.25952862,12.1359371 2.90837262,12.4008979 2.7986532,12.785275 L1.99317621,15.6078114 L19.9980247,18.905679 L24.5438384,15.1535802 Z" id="Shape"></path>
                    <path d="M26.6322783,22.4728171 L24.905679,16.4215488 L16.338945,23.6132884 L25.7719416,23.6132884 C26.0527048,23.6132884 26.3171268,23.4815713 26.4861953,23.2574635 C26.6552637,23.033266 26.7092256,22.742716 26.6322783,22.4728171 Z" id="Shape"></path>
                    <path d="M4.38096521,17.3187879 L1.64785634,16.8181369 L0.0343883277,22.4728171 C-0.0425589226,22.742716 0.0114029181,23.033266 0.180561167,23.2573737 C0.34962963,23.4814815 0.614051627,23.6131987 0.894814815,23.6131987 L4.38096521,23.6131987 L4.38096521,17.3187879 Z" id="Shape"></path>
                    <polygon id="Shape" points="5.63375982 17.5483726 5.63375982 23.6131987 14.3903928 23.6131987 18.7525926 19.9512458"></polygon>
                </g>
            </g>
        </g>
    </g>
</svg>