<?xml version="1.0" encoding="UTF-8"?>
<svg width="35px" height="39px" viewBox="0 0 35 39" version="1.1" xmlns="http://www.w3.org/2000/svg" xmlns:xlink="http://www.w3.org/1999/xlink">
    <!-- Generator: Sketch 49.2 (51160) - http://www.bohemiancoding.com/sketch -->
    <title>security</title>
    <desc>Created with Sketch.</desc>
    <defs></defs>
    <g id="Page-9" stroke="none" stroke-width="1" fill="none" fill-rule="evenodd">
        <g id="0.0.0---0-Home" transform="translate(-289.000000, -137.000000)" fill="#7E57C2" fill-rule="nonzero">
            <g id="Categories" transform="translate(12.000000, 20.000000)">
                <g id="Group-Copy" transform="translate(234.000000, 98.000000)">
                    <g id="ic/Tabbar/insurance_companies_active" transform="translate(21.000000, 13.000000)">
                        <path d="M49.8126914,19.1749318 C49.4978607,18.8671104 48.9860339,18.8671104 48.6712032,19.1749318 L37.9411543,29.6660929 L32.0529887,23.9106461 C31.7381581,23.6028247 31.2263312,23.6028247 30.9115006,23.9106461 C30.5966699,24.2184675 30.5966699,24.7188993 30.9115006,25.0267208 L37.3695399,31.3409818 C37.5277877,31.4940786 37.7343953,31.5714779 37.9410786,31.5714779 C38.1477619,31.5714779 38.3543695,31.4941526 38.511028,31.3409818 L49.8126157,20.2910065 C50.127522,19.983111 50.127522,19.4827532 49.8126914,19.1749318 Z" id="Shape"></path>
                        <path d="M55.9316823,11.08315 L39.7865462,6.34743571 C39.6348069,6.30326038 39.4749698,6.30326038 39.3231548,6.34743571 L23.1780188,11.08315 C22.8373054,11.1826 22.6032258,11.4904214 22.6032258,11.8393104 L22.6032258,29.2036208 C22.6032258,36.1840636 33.4882683,42.392585 39.316722,44.1652961 C39.3942188,44.1889747 39.4749698,44.2 39.5556452,44.2 C39.6363205,44.2 39.7170715,44.1889747 39.7945683,44.1652961 C45.623022,42.3909571 56.5080645,36.1839896 56.5080645,29.2035468 L56.5080645,11.8393104 C56.5080645,11.4904214 56.2739849,11.1841539 55.9316823,11.08315 Z M54.8935736,29.2035468 C54.8935736,34.7458864 45.9120456,40.5739968 39.5556452,42.5834935 C33.1993204,40.5739968 24.2177167,34.7458864 24.2177167,29.2035468 L24.2177167,12.426539 L39.5556452,7.92761038 L54.8935736,12.426539 L54.8935736,29.2035468 Z" id="Shape"></path>
                    </g>
                </g>
            </g>
        </g>
    </g>
</svg>