<?xml version="1.0" encoding="UTF-8"?>
<svg width="36px" height="39px" viewBox="0 0 36 39" version="1.1" xmlns="http://www.w3.org/2000/svg" xmlns:xlink="http://www.w3.org/1999/xlink">
    <!-- Generator: Sketch 49.2 (51160) - http://www.bohemiancoding.com/sketch -->
    <title>buy/sell</title>
    <desc>Created with Sketch.</desc>
    <defs></defs>
    <g id="Page-9" stroke="none" stroke-width="1" fill="none" fill-rule="evenodd">
        <g id="0.0.0---0-Home" transform="translate(-230.000000, -39.000000)" fill="#7E57C2">
            <g id="Categories" transform="translate(12.000000, 20.000000)">
                <g id="Group-Copy" transform="translate(176.000000, 0.000000)">
                    <g id="Icons/Tabbar/ads_active" transform="translate(21.000000, 13.000000)">
                        <g id="Group" transform="translate(20.988710, 6.314286)">
                            <path d="M28.3654548,33.1937411 C28.3654548,33.7792825 28.3305106,34.3528599 28.3751027,34.9205705 C28.4218125,35.5154298 29.0025677,35.9862787 29.6475636,36.0302231 C30.2432612,36.0709464 30.8682555,35.6938532 30.9520273,35.1022148 C31.0400348,34.4808968 30.9717937,33.8385268 30.9717937,33.1937411 L28.3654548,33.1937411 Z M4.83404562,33.1952366 C4.83404562,33.7739908 4.8036901,34.3288171 4.84192864,34.8791569 C4.88616769,35.5156599 5.49410165,36.0181441 6.16545275,36.0336742 C6.80185971,36.0485141 7.4003811,35.6056193 7.46344528,34.9779742 C7.52215615,34.3943885 7.47603458,33.8005644 7.47603458,33.1952366 L4.83404562,33.1952366 Z M17.9426877,20.0146892 C13.4130091,20.0146892 8.88333051,20.0144592 4.3536519,20.0156095 C4.18763781,20.0157246 4.01821166,20.0134238 3.85608025,20.0426434 C2.63068212,20.2635156 1.83767363,21.2125757 1.83484986,22.4703968 C1.83002593,24.6176885 1.83320267,26.7649802 1.83367329,28.912387 C1.83402626,30.4602178 2.86234885,31.4627705 4.44918942,31.4627705 L31.4212436,31.4627705 C31.4898376,31.4627705 31.5585494,31.4641509 31.6271434,31.4624253 C32.9905533,31.4272238 34.0027568,30.4113268 34.0027568,29.0778111 C34.0029921,26.8250298 34.0033451,24.5723637 34.0015803,22.3195825 C34.0014626,22.195802 33.9934619,22.0706411 33.9726366,21.9488163 C33.7713254,20.7743975 32.6704084,19.9963983 31.5316059,20.0033005 C27.0020449,20.0309095 22.4723663,20.0146892 17.9426877,20.0146892 Z M26.6420144,33.1716539 L9.23606633,33.1716539 C9.23606633,33.5341374 9.24524358,33.8863825 9.23347788,34.2379374 C9.22171217,34.5915629 9.21912372,34.9495599 9.16005988,35.2970885 C8.93274647,36.6345156 7.71734919,37.6582351 6.30840606,37.7227712 C4.9072283,37.7869622 3.5286407,36.852972 3.22179112,35.5428088 C3.0862502,34.9640547 3.0728373,34.3427366 3.10425173,33.7459216 C3.13248942,33.2105366 2.97906463,32.957799 2.45372593,32.7164502 C0.939009117,32.0204727 0.146118285,30.778987 0.118821851,29.1476389 C0.0804656536,26.8479223 0.0729356027,24.5460201 0.129175671,22.2468787 C0.171885178,20.506705 1.13184902,19.3123847 2.73669112,18.6091599 C2.93388433,18.5227667 2.99083034,18.4302765 2.98871251,18.2327569 C2.97306413,16.7542938 3.0402463,15.2822727 3.40463017,13.8376306 C4.14457533,10.9047471 5.69047126,8.44305767 7.97101778,6.42000654 C10.0160149,4.60586368 12.4146891,3.47745992 15.1204482,2.96416218 C16.9002463,2.62652684 18.6855743,2.63216368 20.4729025,2.89824564 C21.0123601,2.97854188 21.3120325,3.38094338 21.236732,3.90033812 C21.1726089,4.34288774 20.7529263,4.63703887 20.230882,4.56042383 C19.1410247,4.4002915 18.0490497,4.34587872 16.9491916,4.41973286 C14.4913359,4.58469677 12.2607937,5.38754414 10.2708601,6.78559602 C7.21342406,8.93357797 5.41527143,11.8624351 4.84934104,15.4940569 C4.70850555,16.3981374 4.72450691,17.3255705 4.6667373,18.2691088 L31.090392,18.2691088 C31.090392,17.6001652 31.1100407,16.9239742 31.0835679,16.2495088 C31.0658016,15.8013223 30.9732056,15.3563569 30.930496,14.9084005 C30.8954342,14.5407404 31.0472118,14.2448637 31.3813578,14.0703517 C31.7196219,13.8935389 32.0737696,13.9433502 32.3342623,14.1951674 C32.4929816,14.3485126 32.6178157,14.5987193 32.6372292,14.8157953 C32.7377083,15.9405178 32.8068906,17.0681163 32.8679546,18.1957148 C32.879485,18.4102599 32.9159587,18.5208111 33.1460959,18.60939 C34.7778814,19.2371502 35.7467872,20.6998532 35.7556115,22.5443659 C35.7656123,24.6531201 35.7671419,26.7619892 35.7551409,28.8706283 C35.7437281,30.8687163 34.8085899,32.2061434 32.9391371,32.9235178 C32.7835945,32.9832223 32.7673578,33.0653592 32.764887,33.2005283 C32.753239,33.8323148 32.769005,34.4673223 32.7078234,35.0949674 C32.5605168,36.6048359 31.2342865,37.731399 29.6595646,37.7243817 C28.122493,37.7174795 26.7713195,36.5314419 26.6501327,35.038484 C26.6008344,34.4310855 26.6420144,33.8167847 26.6420144,33.1716539 Z" id="Fill-4"></path>
                            <path d="M25.7609161,2.97457308 C24.98285,3.26251218 24.4533933,4.13668286 24.5035152,5.01510992 C24.550578,5.83728361 25.1170967,6.64944902 25.7609161,6.81257233 L25.7609161,2.97457308 Z M27.6610774,12.8927693 C28.4674987,12.5474265 28.9844838,11.7061565 28.937774,10.8621257 C28.8910641,10.0203956 28.3503123,9.23618436 27.6610774,9.02267459 L27.6610774,12.8927693 Z M27.6986099,14.6882761 C27.6434288,15.0173986 27.6126026,15.3090189 27.542832,15.5915513 C27.4469415,15.9786528 27.098559,16.2257535 26.7014665,16.2228776 C26.3055505,16.2198866 25.9706986,15.9668039 25.8705724,15.5770565 C25.8217448,15.3868994 25.7691521,15.1891498 25.7751526,14.9964618 C25.7819767,14.7792708 25.71703,14.6863205 25.4990115,14.6169528 C23.9222894,14.1144686 22.834903,12.7242392 22.7687797,11.1534009 C22.7432481,10.5441618 23.0477446,10.1442911 23.5622588,10.1119656 C24.1093641,10.0775693 24.4578643,10.4239475 24.5012797,11.0534332 C24.555402,11.8394851 24.9319045,12.429858 25.6198453,12.8339851 C25.6513774,12.8525062 25.6871451,12.86424 25.7465619,12.8903535 L25.7465619,8.74290316 C25.1999273,8.43356707 24.6374089,8.20475729 24.1850176,7.84388436 C22.2742672,6.31963624 22.2753261,3.51582496 24.1758403,1.97662195 C24.5311646,1.68891293 24.955083,1.45584677 25.3850018,1.29168812 C25.6825565,1.17803098 25.8075083,1.02491594 25.8566889,0.749055789 C25.9053989,0.476876842 26.0663538,0.276711429 26.3151984,0.149709925 C26.809711,-0.102567519 27.4125857,0.153506165 27.5427144,0.696253534 C27.6196621,1.0174385 27.7700278,1.17895128 28.1057033,1.29387383 C29.6285385,1.81522421 30.6730977,3.30323549 30.6716858,4.87441895 C30.6712152,5.34745353 30.3081256,5.72834301 29.838674,5.74847459 C29.3613393,5.76883624 28.9698943,5.40991895 28.945304,4.90835504 C28.90483,4.08123474 28.545976,3.44185579 27.8129726,3.01334075 C27.7735575,2.99033323 27.730495,2.97342271 27.6493116,2.93454 L27.6493116,3.24594677 C27.6493116,4.44394827 27.657077,5.64206481 27.6429582,6.83995128 C27.6400167,7.09556481 27.7021397,7.21244301 27.9676916,7.30332271 C30.9150006,8.31243248 31.215379,11.4177573 30.0060999,13.0908641 C29.4264037,13.8929062 28.6508084,14.4328926 27.6986099,14.6882761 Z" id="Fill-6"></path>
                            <path d="M28.5557298,27.0350655 C29.2143739,27.0349505 29.7301824,26.5374129 29.7366535,25.8959632 C29.74336,25.24347 29.2187272,24.72327 28.5547885,24.7239602 C27.9095573,24.7246505 27.3697467,25.243355 27.3652758,25.8672038 C27.3605695,26.5107241 27.8952031,27.0351805 28.5557298,27.0350655 M31.4732715,25.8678941 C31.4746834,27.452767 30.1799853,28.725658 28.545023,28.7469399 C26.9497111,28.7676467 25.6512479,27.4697926 25.6492478,25.852479 C25.6472476,24.2924542 26.9641829,23.0179527 28.5787905,23.0171474 C30.1383347,23.0163422 31.471742,24.3296114 31.4732715,25.8678941" id="Fill-18"></path>
                            <path d="M7.34890615,27.0354106 C8.00955046,27.033455 8.53994842,26.5057775 8.52994757,25.8603016 C8.52029969,25.231161 7.98790156,24.7247655 7.33549324,24.7239602 C6.68390852,24.723155 6.16845301,25.2304708 6.16739409,25.8731858 C6.16633518,26.5381031 6.67402533,27.0374813 7.34890615,27.0354106 M10.2643301,25.8673189 C10.2751545,27.4318302 8.95621905,28.725773 7.33055165,28.7455595 C5.74935861,28.7646557 4.45407219,27.4880835 4.42571684,25.8825038 C4.39865572,24.3452565 5.7384165,23.0257753 7.33490496,23.0171474 C8.91550971,23.0086347 10.2535056,24.3105151 10.2643301,25.8673189" id="Fill-20"></path>
                            <path d="M17.9253451,26.4586466 C16.6804159,26.4586466 15.4354867,26.4653188 14.1906751,26.453585 C13.9052391,26.4509391 13.6166264,26.4027383 13.3363673,26.3438391 C12.9913969,26.2714805 12.7379636,25.9665158 12.7032548,25.6319865 C12.6644279,25.2577692 12.8499731,24.9014977 13.1969437,24.7654083 C13.3997845,24.6860323 13.6265096,24.6249474 13.8427632,24.6241421 C16.5775836,24.6149391 19.3125216,24.6135586 22.047342,24.6262128 C22.2791264,24.6272481 22.5326773,24.7038632 22.7371653,24.8141842 C23.2930948,25.1138571 23.3155673,25.8957677 22.7723447,26.2197135 C22.5516201,26.3513165 22.2691256,26.4441519 22.0128685,26.4482932 C20.6506352,26.4703805 19.2879313,26.4586466 17.9253451,26.4586466" id="Fill-22"></path>
                        </g>
                    </g>
                </g>
            </g>
        </g>
    </g>
</svg>