<?xml version="1.0" encoding="UTF-8"?>
<svg width="40px" height="39px" viewBox="0 0 40 39" version="1.1" xmlns="http://www.w3.org/2000/svg" xmlns:xlink="http://www.w3.org/1999/xlink">
    <!-- Generator: Sketch 49.2 (51160) - http://www.bohemiancoding.com/sketch -->
    <title>videos</title>
    <desc>Created with Sketch.</desc>
    <defs></defs>
    <g id="Page-9" stroke="none" stroke-width="1" fill="none" fill-rule="evenodd">
        <g id="0.0.0---0-Home" transform="translate(-110.000000, -39.000000)" fill="#7E57C2" fill-rule="nonzero">
            <g id="Categories" transform="translate(12.000000, 20.000000)">
                <g id="Group-Copy-2" transform="translate(58.000000, 0.000000)">
                    <g id="ic/Tabbar/videos" transform="translate(21.000000, 13.000000)">
                        <path d="M49.7560235,25.5165465 L34.9562923,15.8969728 C34.7497688,15.7635814 34.4833737,15.7488314 34.2627231,15.8597772 C34.0427453,15.9707229 33.9048387,16.1887666 33.9048387,16.4266907 L33.9048387,35.6658379 C33.9048387,35.9037621 34.0427453,36.1218057 34.2633958,36.2327515 C34.3616122,36.2827733 34.4699194,36.3071429 34.5775538,36.3071429 C34.7100786,36.3071429 34.8426035,36.2693059 34.9562923,36.1955558 L49.7560235,26.5759822 C49.9396747,26.4566995 50.05,26.2585362 50.05,26.0462643 C50.05,25.8339924 49.9396747,25.6358292 49.7560235,25.5165465 Z M35.2502688,34.4518478 L35.2502688,17.6406809 L48.1832157,26.0462643 L35.2502688,34.4518478 Z" id="Shape"></path>
                        <path d="M38.7483871,6.31428571 C28.0654568,6.31428571 19.3741935,14.8120514 19.3741935,25.2571429 C19.3741935,35.7022343 28.0654568,44.2 38.7483871,44.2 C49.4313174,44.2 58.1225806,35.7022343 58.1225806,25.2571429 C58.1225806,14.8120514 49.4313174,6.31428571 38.7483871,6.31428571 Z M38.7483871,42.9371429 C28.7777813,42.9371429 20.6658065,35.0057686 20.6658065,25.2571429 C20.6658065,15.5085171 28.7777813,7.57714286 38.7483871,7.57714286 C48.7189929,7.57714286 56.8309677,15.5085171 56.8309677,25.2571429 C56.8309677,35.0057686 48.7189929,42.9371429 38.7483871,42.9371429 Z" id="Shape"></path>
                    </g>
                </g>
            </g>
        </g>
    </g>
</svg>