<?xml version="1.0" encoding="UTF-8"?>
<svg width="128px" height="130px" viewBox="0 0 128 130" version="1.1" xmlns="http://www.w3.org/2000/svg" xmlns:xlink="http://www.w3.org/1999/xlink" style="background: #7E57C2;">
    <!-- Generator: Sketch 49.2 (51160) - http://www.bohemiancoding.com/sketch -->
    <title>Artboard</title>
    <desc>Created with Sketch.</desc>
    <defs></defs>
    <g id="Artboard" stroke="none" stroke-width="1" fill="none" fill-rule="evenodd">
        <path d="M75.7,53.1046154 C70.1136725,47.4473976 61.3698812,46.5841312 54.8148716,51.042646 C48.2598621,55.5011609 45.7187969,64.0400379 48.745368,71.4383229 C51.7719392,78.8366079 59.5234348,83.0343385 67.2603319,81.4648823 C74.9972291,79.8954261 80.5652831,72.995779 80.56,64.9846154 C80.5636905,60.5252703 78.8142607,56.2488862 75.7,53.1046154 L75.7,53.1046154 Z M72.98,71.3815385 C72.8207279,71.6526613 72.5558981,71.8426835 72.2510265,71.9045959 C71.9461549,71.9665083 71.6297185,71.8945278 71.38,71.7064615 L68.28,69.3304615 C67.6770244,68.8828918 66.878678,68.8137748 66.2097825,69.1512322 C65.5408869,69.4886895 65.112917,70.1764821 65.1,70.9347692 L65.1,74.8744615 C65.1012836,75.18915 64.9717676,75.4897873 64.7433065,75.7024318 C64.5148455,75.9150764 64.2086395,76.0199956 63.9,75.9913846 C63.3256108,75.9192312 62.8956211,75.4215015 62.9,74.8338462 L62.9,71.0769231 C62.887083,70.3186359 62.4591131,69.6308433 61.7902175,69.293386 C61.121322,68.9559287 60.3229756,69.0250456 59.72,69.4726154 L56.62,71.8486154 C56.1339894,72.2187311 55.4445079,72.1187184 55.08,71.6252308 C54.7154921,71.1317431 54.8139894,70.4316542 55.3,70.0615385 L60.1,66.3655385 C60.5881588,65.9808574 60.8737863,65.3886598 60.8737863,64.7612308 C60.8737863,64.1338018 60.5881588,63.5416041 60.1,63.1569231 L55.3,59.4609231 C54.9856063,59.2215002 54.8208897,58.8299568 54.8678976,58.4337836 C54.9149054,58.0376103 55.166496,57.6969954 55.5278976,57.5402451 C55.8892992,57.3834948 56.3056063,57.4344232 56.62,57.6738462 L59.72,60.0498462 C60.3229756,60.4974159 61.121322,60.5665329 61.7902175,60.2290755 C62.4591131,59.8916182 62.887083,59.2038256 62.9,58.4455385 L62.9,54.4652308 C62.8987164,54.1505424 63.0282324,53.849905 63.2566935,53.6372605 C63.4851545,53.4246159 63.7913605,53.3196967 64.1,53.3483077 C64.6743892,53.4204611 65.1043789,53.9181908 65.1,54.5058462 L65.1,58.4049231 C65.112917,59.1632102 65.5408869,59.8510028 66.2097825,60.1884601 C66.878678,60.5259175 67.6770244,60.4568005 68.28,60.0092308 L71.38,57.6332308 C71.6209144,57.4464678 71.9270488,57.3689186 72.226129,57.4188915 C72.5252093,57.4688644 72.7907281,57.6419303 72.96,57.8972308 C73.2853216,58.4165546 73.1535158,59.1035671 72.66,59.4609231 L68,63.096 C67.5118412,63.480681 67.2262137,64.0728787 67.2262137,64.7003077 C67.2262137,65.3277367 67.5118412,65.9199344 68,66.3046154 L72.76,69.9803077 C73.1811531,70.3529804 73.2742975,70.9806303 72.98,71.4627692 L72.98,71.3815385 Z" id="Shape"></path>
        <path d="M20.12,0 L16.56,0 C16.5614741,4.45889699 14.8123839,8.73445092 11.7,11.88 C8.59882435,15.0328177 4.38845828,16.8013375 1.54206075e-15,16.7944615 L0,16.7944615 L0,20.4295385 L0,20.4295385 C11.1119692,20.4295385 20.12,11.2829225 20.12,0 L20.12,0 Z" id="Shape" fill="#6C48AB"></path>
        <path d="M1.1,9.97107692 L1.1,6.09230769 C1.11291701,5.33402053 1.54088689,4.64622795 2.20978246,4.30877062 C2.87867803,3.97131329 3.67702435,4.04043024 4.28,4.488 L7.38,6.80307692 C7.62971847,6.99114317 7.94615486,7.06312367 8.25102646,7.00121128 C8.55589807,6.9392989 8.82072786,6.74927665 8.98,6.47815385 C9.25175516,5.97202996 9.11532777,5.34000385 8.66,4.99569231 L4,1.32 C3.55687678,1.01230102 3.25418185,0.53663756 3.16,0 L0,0 L0,11.0676923 C0.289883233,11.073144 0.569751595,10.9600193 0.776637302,10.7537702 C0.98352301,10.5475211 1.10004972,10.2654704 1.1,9.97107692 L1.1,9.97107692 Z" id="Shape" fill="#6C48AB"></path>
        <path d="M111.46,0 L107.88,0 C107.88,11.2829225 116.888031,20.4295385 128,20.4295385 L128,16.7944615 C123.611542,16.8013375 119.401176,15.0328177 116.3,11.88 C113.194952,8.73111395 111.453228,4.45597303 111.46,7.33848078e-16 L111.46,0 Z" id="Shape" fill="#6C48AB"></path>
        <path d="M124.86,0 C124.785706,0.523733031 124.513023,0.997339437 124.1,1.32 L119.3,5.016 C118.985606,5.2554229 118.82089,5.64696627 118.867898,6.04313951 C118.914905,6.43931275 119.166496,6.77992771 119.527898,6.93667802 C119.889299,7.09342832 120.305606,7.04249987 120.62,6.80307692 L123.72,4.42707692 C124.33169,3.97312067 125.143496,3.90910502 125.816876,4.26172587 C126.490257,4.61434672 126.909588,5.32305634 126.9,6.09230769 L126.9,9.91015385 C126.895621,10.4978092 127.325611,10.9955389 127.9,11.0676923 L128,11.0676923 L128,0 L124.86,0 Z" id="Shape" fill="#6C48AB"></path>
        <path d="M107.88,129.969231 L111.46,129.969231 C111.459993,120.690615 118.861976,113.165668 128,113.154462 L128,109.539692 C116.888031,109.539692 107.88,118.686308 107.88,129.969231 L107.88,129.969231 Z" id="Shape" fill="#6C48AB"></path>
        <path d="M126.9,119.449846 L126.9,123.389538 C126.887083,124.147826 126.459113,124.835618 125.790218,125.173076 C125.121322,125.510533 124.322976,125.441416 123.72,124.993846 L120.62,122.617846 C120.305606,122.378423 119.889299,122.327495 119.527898,122.484245 C119.166496,122.640995 118.914905,122.98161 118.867898,123.377784 C118.82089,123.773957 118.985606,124.1655 119.3,124.404923 L124.1,128.100923 C124.668988,128.546188 124.95909,129.267096 124.86,129.989538 L128,129.989538 L128,118.353231 C127.710117,118.347779 127.430248,118.460904 127.223363,118.667153 C127.016477,118.873402 126.89995,119.155453 126.9,119.449846 L126.9,119.449846 Z" id="Shape" fill="#6C48AB"></path>
        <path d="M1.04707909e-15,109.539692 L1.04707909e-15,109.539692 L1.04707909e-15,113.174769 L1.04707909e-15,113.174769 C4.38845828,113.167893 8.59882435,114.936413 11.7,118.089231 C14.8123839,121.23478 16.5614741,125.510334 16.56,129.969231 L20.14,129.969231 C20.1400026,124.54746 18.0174778,119.348047 14.2399191,115.516181 C10.4623604,111.684315 5.33962017,109.534303 0,109.539692 L1.04707909e-15,109.539692 Z" id="Shape" fill="#6C48AB"></path>
        <path d="M7.38,122.617846 L4.28,124.993846 C3.67702435,125.441416 2.87867803,125.510533 2.20978246,125.173076 C1.54088689,124.835618 1.11291701,124.147826 1.1,123.389538 L1.1,119.490462 C1.10437889,118.902806 0.674389152,118.405077 0.1,118.332923 L0,118.332923 L0,129.969231 L3.16,129.969231 C3.07879274,129.231087 3.40092916,128.506811 4,128.080615 L8.76,124.425231 C9.2535158,124.067875 9.38532161,123.380862 9.06,122.861538 C8.88896048,122.57692 8.60163666,122.384773 8.27656854,122.337621 C7.95150042,122.290468 7.62268354,122.393241 7.38,122.617846 L7.38,122.617846 Z" id="Shape" fill="#6C48AB"></path>
        <path d="M64,44.5550769 C52.8880308,44.5550769 43.88,53.7016928 43.88,64.9846154 C43.88,76.2675379 52.8880308,85.4141538 64,85.4141538 C75.1119692,85.4141538 84.12,76.2675379 84.12,64.9846154 C84.12,59.5663649 82.0002204,54.3700319 78.2269884,50.5387502 C74.4537565,46.7074685 69.3361558,44.5550769 64,44.5550769 L64,44.5550769 Z M75.7,76.8646154 C70.1136725,82.5218332 61.3698812,83.3850996 54.8148716,78.9265847 C48.2598621,74.4680699 45.7187969,65.9291929 48.745368,58.5309079 C51.7719392,51.1326229 59.5234348,46.9348923 67.2603319,48.5043485 C74.9972291,50.0738047 80.5652831,56.9734517 80.56,64.9846154 C80.5614741,69.4435124 78.8123839,73.7190663 75.7,76.8646154 L75.7,76.8646154 Z" id="Shape" fill="#6C48AB"></path>
        <path d="M68,66.3046154 C67.5118412,65.9199344 67.2262137,65.3277367 67.2262137,64.7003077 C67.2262137,64.0728787 67.5118412,63.480681 68,63.096 L72.76,59.4406154 C73.2535158,59.0832594 73.3853216,58.3962469 73.06,57.8769231 C72.8907281,57.6216226 72.6252093,57.4485567 72.326129,57.3985838 C72.0270488,57.3486109 71.7209144,57.4261601 71.48,57.6129231 L68.38,59.9889231 C67.7770244,60.4364928 66.978678,60.5056098 66.3097825,60.1681525 C65.6408869,59.8306951 65.212917,59.1429025 65.2,58.3846154 L65.2,54.5058462 C65.2043789,53.9181908 64.7743892,53.4204611 64.2,53.3483077 C63.8913605,53.3196967 63.5851545,53.4246159 63.3566935,53.6372605 C63.1282324,53.849905 62.9987164,54.1505424 63,54.4652308 L63,58.4049231 C62.987083,59.1632102 62.5591131,59.8510028 61.8902175,60.1884601 C61.221322,60.5259175 60.4229756,60.4568005 59.82,60.0092308 L56.72,57.6332308 C56.2339894,57.263115 55.5445079,57.3631277 55.18,57.8566154 C54.8154921,58.3501031 54.9139894,59.0501919 55.4,59.4203077 L60.2,63.1163077 C60.6881588,63.5009887 60.9737863,64.0931864 60.9737863,64.7206154 C60.9737863,65.3480444 60.6881588,65.9402421 60.2,66.3249231 L55.4,70.0209231 C55.0856063,70.260346 54.9208898,70.6518893 54.9678976,71.0480626 C55.0149055,71.4442358 55.266496,71.7848507 55.6278976,71.9416011 C55.9892992,72.0983514 56.4056063,72.0474229 56.72,71.808 L59.82,69.432 C60.4229756,68.9844302 61.221322,68.9153133 61.8902175,69.2527706 C62.5591131,69.590228 62.987083,70.2780205 63,71.0363077 L63,74.9353846 C62.9956211,75.52304 63.4256108,76.0207696 64,76.0929231 C64.3086395,76.1215341 64.6148455,76.0166148 64.8433065,75.8039703 C65.0717676,75.5913258 65.2012836,75.2906884 65.2,74.976 L65.2,71.0769231 C65.212917,70.3186359 65.6408869,69.6308433 66.3097825,69.293386 C66.978678,68.9559287 67.7770244,69.0250456 68.38,69.4726154 L71.48,71.8486154 C71.7297185,72.0366816 72.0461549,72.1086621 72.3510265,72.0467497 C72.6558981,71.9848374 72.9207279,71.7948151 73.08,71.5236923 C73.3517552,71.0175684 73.2153278,70.3855423 72.76,70.0412308 L68,66.3046154 Z" id="Shape" fill="#6C48AB"></path>
        <path d="M109.16,113.215385 C109.827876,113.690762 110.735535,113.610374 111.31227,113.024766 C111.889004,112.439159 111.968174,111.517536 111.5,110.839385 L111.5,110.839385 C102.26,100.820923 92.7066667,91.1206154 82.84,81.7384615 L82.84,81.7384615 C82.1721238,81.2630844 81.264465,81.3434724 80.6877302,81.9290799 C80.1109955,82.5146875 80.0318256,83.4363103 80.5,84.1144615 L80.5,84.1144615 C89.74,94.1329231 99.2933333,103.833231 109.16,113.215385 L109.16,113.215385 Z" id="Shape" fill="#6C48AB"></path>
        <path d="M18.84,16.7538462 C18.1721238,16.2784691 17.264465,16.358857 16.6877302,16.9444646 C16.1109955,17.5300721 16.0318256,18.4516949 16.5,19.1298462 L16.5,19.1298462 C25.74,29.1483077 35.2933333,38.8486154 45.16,48.2307692 L45.16,48.2307692 C45.8128022,48.7524292 46.7537004,48.6631419 47.3,48.0276923 L47.3,48.0276923 C47.9258216,47.4729881 48.013756,46.5176145 47.5,45.8547692 L47.5,45.8547692 C38.26,35.8363077 28.7066667,26.136 18.84,16.7538462 L18.84,16.7538462 Z" id="Shape" fill="#6C48AB"></path>
        <path d="M82.84,48.2307692 L82.84,48.2307692 C92.7066667,38.8486154 102.26,29.1483077 111.5,19.1298462 L111.5,19.1298462 C111.968174,18.4516949 111.889004,17.5300721 111.31227,16.9444646 C110.735535,16.358857 109.827876,16.2784691 109.16,16.7538462 L109.16,16.7538462 C99.2933333,26.136 89.74,35.8363077 80.5,45.8547692 L80.5,45.8547692 C80.0318256,46.5329205 80.1109955,47.4545432 80.6877302,48.0401508 C81.264465,48.6257584 82.1721238,48.7061463 82.84,48.2307692 L82.84,48.2307692 Z" id="Shape" fill="#6C48AB"></path>
        <path d="M47.3,81.9415385 C46.7537004,81.3060889 45.8128022,81.2168016 45.16,81.7384615 L45.16,81.7384615 C35.2933333,91.1206154 25.74,100.820923 16.5,110.839385 L16.5,110.839385 C16.0318256,111.517536 16.1109955,112.439159 16.6877302,113.024766 C17.264465,113.610374 18.1721238,113.690762 18.84,113.215385 L18.84,113.215385 C28.7066667,103.833231 38.26,94.1329231 47.5,84.1144615 L47.5,84.1144615 C48.013756,83.4516163 47.9258216,82.4962427 47.3,81.9415385 L47.3,81.9415385 Z" id="Shape" fill="#6C48AB"></path>
        <path d="M64.28,126.049846 C62.1481809,126.049846 60.42,127.804614 60.42,129.969231 L68.12,129.969231 C68.1200285,127.81252 66.4040045,126.061021 64.28,126.049846 L64.28,126.049846 Z" id="Shape" fill-opacity="0.315896739" fill="#FFFFFF" opacity="0.304291214"></path>
        <path d="M76.66,126.049846 C74.5281809,126.049846 72.8,127.804614 72.8,129.969231 L80.5,129.969231 C80.5000285,127.81252 78.7840045,126.061021 76.66,126.049846 L76.66,126.049846 Z" id="Shape" fill-opacity="0.315896739" fill="#FFFFFF" opacity="0.304291214"></path>
        <ellipse id="Oval" fill-opacity="0.315896739" fill="#FFFFFF" opacity="0.304291214" cx="64.28" cy="117.398769" rx="3.86" ry="3.91938462"></ellipse>
        <path d="M52,126.049846 C50.9522293,126.011234 49.934067,126.407058 49.179608,127.146312 C48.4251489,127.885566 47.9993102,128.90464 48,129.969231 L55.7,129.969231 C55.7017798,127.866504 54.0690878,126.137005 52,126.049846 L52,126.049846 Z" id="Shape" fill-opacity="0.315896739" fill="#FFFFFF" opacity="0.304291214"></path>
        <path d="M0,60.8012308 L0,60.8012308 L0,68.6196923 L0,68.6196923 C2.13181913,68.6196923 3.86,66.864924 3.86,64.7003077 C3.84899465,62.5436262 2.12403301,60.8012018 7.8174873e-17,60.8012308 L0,60.8012308 Z" id="Shape" fill-opacity="0.315896739" fill="#FFFFFF" opacity="0.304291214"></path>
        <path d="M0,73.3716923 L0,73.3716923 L0,81.2307692 L0,81.2307692 C2.13181913,81.2307692 3.86,79.476001 3.86,77.3113846 C3.86532233,76.2683851 3.46099574,75.2662492 2.73652765,74.526824 C2.01205956,73.7873988 1.02721031,73.3716783 7.8174873e-17,73.3716923 L0,73.3716923 Z" id="Shape" fill-opacity="0.315896739" fill="#FFFFFF" opacity="0.304291214"></path>
        <ellipse id="Oval" fill-opacity="0.315896739" fill="#FFFFFF" opacity="0.304291214" cx="12.38" cy="64.7003077" rx="3.86" ry="3.91938462"></ellipse>
        <path d="M0,48.2307692 L0,48.2307692 L0,56.0492308 L0,56.0492308 C2.13181913,56.0492308 3.86,54.2944625 3.86,52.1298462 C3.84899465,49.9731647 2.12403301,48.2307403 7.8174873e-17,48.2307692 L0,48.2307692 Z" id="Shape" fill-opacity="0.315896739" fill="#FFFFFF" opacity="0.304291214"></path>
        <path d="M124.16,64.7003077 C124.159971,66.8570181 125.875996,68.6085176 128,68.6196923 L128,60.8012308 C125.883773,60.8123358 124.170937,62.5515236 124.16,64.7003077 L124.16,64.7003077 Z" id="Shape" fill-opacity="0.315896739" fill="#FFFFFF" opacity="0.304291214"></path>
        <path d="M124.16,52.1298462 C124.159971,54.2865566 125.875996,56.0380561 128,56.0492308 L128,48.2307692 C125.883773,48.2418743 124.170937,49.9810621 124.16,52.1298462 L124.16,52.1298462 Z" id="Shape" fill-opacity="0.315896739" fill="#FFFFFF" opacity="0.304291214"></path>
        <ellipse id="Oval" fill-opacity="0.315896739" fill="#FFFFFF" opacity="0.304291214" cx="115.62" cy="64.7003077" rx="3.86" ry="3.91938462"></ellipse>
        <path d="M124.16,77.2707692 C124.149341,78.3137631 124.548564,79.3180502 125.269284,80.0612931 C125.990005,80.8045359 126.972767,81.225421 128,81.2307692 L128,73.3716923 C125.883773,73.3827974 124.170937,75.1219852 124.16,77.2707692 L124.16,77.2707692 Z" id="Shape" fill-opacity="0.315896739" fill="#FFFFFF" opacity="0.304291214"></path>
        <path d="M64.28,3.91938462 C66.4040045,3.90820995 68.1200285,2.15671044 68.12,0 L60.42,0 C60.42,2.16461635 62.1481809,3.91938462 64.28,3.91938462 L64.28,3.91938462 Z" id="Shape" fill-opacity="0.315896739" fill="#FFFFFF" opacity="0.304291214"></path>
        <path d="M52,3.91938462 C54.0926671,3.86431802 55.7607026,2.12557523 55.76,0 L48,0 C47.9993102,1.06459051 48.4251489,2.08366487 49.179608,2.82291866 C49.934067,3.56217246 50.9522293,3.95799695 52,3.91938462 L52,3.91938462 Z" id="Shape" fill-opacity="0.315896739" fill="#FFFFFF" opacity="0.304291214"></path>
        <ellipse id="Oval" fill-opacity="0.315896739" fill="#FFFFFF" opacity="0.304291214" cx="64.28" cy="12.5704615" rx="3.86" ry="3.91938462"></ellipse>
        <path d="M76.66,3.91938462 C78.7840045,3.90820995 80.5000285,2.15671044 80.5,0 L72.8,0 C72.8,2.16461635 74.5281809,3.91938462 76.66,3.91938462 L76.66,3.91938462 Z" id="Shape" fill-opacity="0.315896739" fill="#FFFFFF" opacity="0.304291214"></path>
    </g>
</svg>